<?xml version="1.0" encoding="UTF-8" standalone="no"?>
<!-- Created with Inkscape (http://www.inkscape.org/) -->

<svg
   width="182.06683"
   height="195.18317"
   viewBox="0 0 182.06683 195.18317"
   version="1.1"
   id="SVGRoot"
   sodipodi:docname="unlink filtration.svg"
   inkscape:version="1.2.2 (732a01da63, 2022-12-09)"
   xmlns:inkscape="http://www.inkscape.org/namespaces/inkscape"
   xmlns:sodipodi="http://sodipodi.sourceforge.net/DTD/sodipodi-0.dtd"
   xmlns="http://www.w3.org/2000/svg"
   xmlns:svg="http://www.w3.org/2000/svg">
  <sodipodi:namedview
     id="namedview170"
     pagecolor="#ffffff"
     bordercolor="#111111"
     borderopacity="1"
     inkscape:showpageshadow="0"
     inkscape:pageopacity="0"
     inkscape:pagecheckerboard="1"
     inkscape:deskcolor="#d1d1d1"
     inkscape:document-units="px"
     showgrid="false"
     inkscape:zoom="0.914906"
     inkscape:cx="269.97309"
     inkscape:cy="214.77616"
     inkscape:window-width="1354"
     inkscape:window-height="838"
     inkscape:window-x="262"
     inkscape:window-y="227"
     inkscape:window-maximized="0"
     inkscape:current-layer="layer3" />
  <defs
     id="defs165">
    <clipPath
       clipPathUnits="userSpaceOnUse"
       id="clipPath7539-2">
      <path
         id="path7541-6"
         style="fill:#ff0000;fill-opacity:1;fill-rule:nonzero;stroke:none"
         d="m 93.138672,300.81055 v 121.95117 h 77.878908 c -1.90056,-1.53198 -3.78558,-3.08418 -5.64649,-4.66406 -1.14414,-0.99689 -2.27857,-2.00449 -3.39062,-3.03711 -3.56184,-3.30744 -2.07682,-6.72133 0.88672,-6.67969 1.15964,0.0163 2.5461,0.56128 3.94531,1.84961 0.99976,0.92055 2.02102,1.82307 3.04688,2.7168 0.70407,0.59695 1.42665,1.17176 2.13671,1.76171 -0.0263,-0.22891 -0.11444,-0.51916 -0.16992,-0.77734 -0.92551,-1.0862 -0.93214,-1.57585 -0.42969,-1.75391 -0.49417,-1.71166 -0.96659,-3.32663 -0.0684,-3.28125 0.31221,0.0158 0.78861,0.22978 1.48633,0.70704 0.28541,0.19522 0.58088,0.37835 0.85743,0.58593 0.15429,0.11583 0.97207,0.84826 1.0957,0.95703 0.50583,0.44503 1.01347,0.88773 1.52148,1.33008 1.45989,-0.003 2.34727,-0.49042 1.09766,-2.53906 -0.0134,-0.022 -0.0603,-0.081 -0.0391,-0.0664 0.0589,0.0405 0.10365,0.0981 0.15625,0.14649 0.10881,0.10026 0.21794,0.19794 0.32617,0.29883 0.5565,0.51879 1.10137,1.04933 1.64258,1.58398 1.09803,1.11352 2.15917,2.26341 3.22851,3.4043 0.74303,0.7805 1.46893,1.57915 2.2461,2.32617 0.45354,0.44035 0.23661,0.2344 0.64843,0.61914 1.46381,1.36751 2.07696,2.76705 2.09571,3.94141 0.0769,0.0605 0.15358,0.12115 0.23047,0.18164 0.16343,0.1286 0.31724,0.25813 0.46289,0.38867 h 26.70507 V 300.81055 Z" />
    </clipPath>
    <clipPath
       clipPathUnits="userSpaceOnUse"
       id="clipPath7701">
      <path
         id="path7703"
         style="fill:#ff0000;fill-opacity:1;fill-rule:nonzero;stroke:none"
         d="m 485.69336,218.52344 v 18.49023 c 0.42829,-0.0916 1.20097,-0.12787 2.46484,-0.12695 0.60952,4.4e-4 1.32863,0.009 2.17383,0.0234 2.49164,0.043 4.5391,1.31506 6.54688,2.63476 1.19526,0.76585 2.23607,1.73669 3.37695,2.57422 0.55313,0.41846 1.09994,0.84265 1.66406,1.24609 11.00139,7.86782 3.05265,18.98118 -7.94726,11.11133 -0.64822,-0.46377 -1.28046,-0.9474 -1.91602,-1.42773 -0.9086,-0.68806 -1.77506,-1.4301 -2.69922,-2.09766 -0.15223,-0.1008 -0.30188,-0.20343 -0.45508,-0.30273 -0.16438,-0.10657 -0.33411,-0.20427 -0.49609,-0.31446 -0.0279,-0.019 -0.10607,-0.072 -0.0723,-0.0723 0.29929,-0.002 1.87385,0.63432 1.99805,0.31055 3.02667,-7.89049 -2.98354,-11.333 -4.63867,-12.75782 v 102.66024 h 121.9512 V 218.52344 Z" />
    </clipPath>
    <clipPath
       clipPathUnits="userSpaceOnUse"
       id="clipPath7713">
      <path
         id="path7715"
         style="fill:#ff0000;fill-opacity:1;fill-rule:nonzero;stroke:none"
         d="m 151.17678,311.93604 v 121.95117 h 121.95117 v -17.27344 c -2.31779,2.00929 -6.595,2.20272 -11.42773,-1.34961 -0.76802,-0.56453 -1.53369,-1.13108 -2.32031,-1.66992 -1.92322,-1.40157 -3.84504,-2.80575 -5.71875,-4.27343 -0.83427,-0.64229 -1.677,-1.27297 -2.5254,-1.89649 -0.14798,-0.10876 -0.43411,-0.13533 -0.44921,-0.31836 -0.0404,-0.48946 1.89119,1.85295 1.38476,0.50391 -3.56507,-9.49683 -7.04427,-14.86919 -3.2168,-14.96289 1.27583,-0.0312 3.36234,0.52425 6.5293,1.70898 0.49903,0.18668 1.01685,0.32986 1.49805,0.5586 1.11237,0.52876 2.10726,1.3333 3.0918,2.06054 1.46009,1.07855 0.40148,0.27929 2.00781,1.50977 1.78288,1.39919 3.61402,2.73383 5.44531,4.06836 0.80165,0.54811 1.58074,1.12454 2.36328,1.69922 1.43013,1.05024 2.52501,2.15174 3.33789,3.25586 v -95.57227 h -79.72656 c 1.15458,0.84921 2.25914,1.76337 3.33594,2.70898 1.36388,1.20408 2.61387,2.52714 3.87695,3.83399 0.51872,0.53604 0.26584,0.27615 0.75195,0.77734 3.32927,3.43258 -0.13753,6.79587 -3.46679,3.36328 -0.49066,-0.50588 -0.23777,-0.24571 -0.75977,-0.78515 -1.17231,-1.21292 -2.328,-2.44266 -3.5918,-3.5625 -0.51555,-0.45406 -0.90738,-0.80892 -1.43945,-1.23828 -0.55562,-0.44833 -1.13732,-0.86375 -1.68945,-1.31641 -1.59416,-1.30701 -2.06647,-2.76552 -1.77735,-3.78125 z m 32.80664,0.91992 c 0.22158,5e-5 0.53551,0.0658 0.95899,0.21289 0.21534,0.0748 0.43401,0.13711 0.64453,0.22461 0.30549,0.1269 0.66525,0.39557 0.91211,0.58008 0.58161,0.4347 1.1042,0.94203 1.63086,1.43945 1.6383,1.66567 3.14038,3.45803 4.68554,5.20899 0.78516,0.8747 0.40586,0.45632 1.13477,1.25781 3.21733,3.53768 -0.35734,6.7881 -3.57422,3.25 -0.7591,-0.83491 -0.36451,-0.39771 -1.18359,-1.31055 -1.45054,-1.64382 -2.86258,-3.32564 -4.38672,-4.90234 -0.40225,-0.38341 -0.51405,-0.49981 -0.91016,-0.83789 -0.397,-0.33885 -0.46978,-0.3387 0.0996,-0.17188 4.15881,1.21839 -2.15397,-4.95171 -0.0117,-4.95117 z" />
    </clipPath>
    <clipPath
       clipPathUnits="userSpaceOnUse"
       id="clipPath8097-3">
      <path
         id="path8099-0"
         style="fill:#ff0000;fill-opacity:1;fill-rule:nonzero;stroke:none"
         d="M 215.55469,274.03125 V 395.98242 H 337.50781 V 274.03125 H 253.8457 c 0.92531,0.63561 1.81125,1.32668 2.66797,2.05664 1.23755,1.00101 2.20339,2.26115 3.21875,3.47266 5.19289,6.19609 3.5122,11.82485 -0.52344,13.13086 -2.22172,2.76848 -7.15961,3.29436 -12.31836,-1.32422 -0.20497,-0.18354 -0.41022,-0.36724 -0.61523,-0.55078 -0.8536,-0.8225 -1.69155,-1.65962 -2.51562,-2.51172 -0.91279,-0.91012 -1.89708,-1.7418 -2.87891,-2.57617 -1.19382,-1.01807 -2.38855,-2.03921 -3.49219,-3.15625 -3.0111,-3.04776 -4.09656,-6.09908 -3.875,-8.54102 z m 37.71093,96.54297 c 7.64217,-0.0735 9.8385,8.92866 0.0293,13.88281 -2.09301,1.05708 -4.20583,2.07316 -6.28906,3.15039 -1.6407,0.80274 -3.22005,1.72078 -4.73828,2.73438 -11.24873,7.50989 -18.83753,-3.95281 -7.54102,-11.39063 1.93622,-1.27484 3.92882,-2.46217 6.01172,-3.48437 2.13695,-1.10171 4.30228,-2.14531 6.44727,-3.23047 2.26287,-1.1448 4.31652,-1.64515 6.08007,-1.66211 z" />
    </clipPath>
    <clipPath
       clipPathUnits="userSpaceOnUse"
       id="clipPath8202">
      <path
         id="path8204"
         style="fill:#ff0000;fill-opacity:1;fill-rule:nonzero;stroke:none"
         d="m 449.45898,106.25391 v 121.95312 h 32.69922 c 3.21968,-4.54279 -10.02125,1.03136 -5.63086,-3.87305 0.0933,-0.10423 0.19035,-0.20815 0.28125,-0.31445 0.0363,-0.0424 0.0456,-0.10054 0.0742,-0.14844 0.0738,-0.12341 0.15091,-0.24564 0.22461,-0.36914 0.31336,-0.52541 0.26285,-0.44436 0.55469,-0.98047 0.0867,-0.1766 0.16864,-0.35589 0.25391,-0.5332 -2.49724,1.28812 -5.74576,3.63494 -4.4629,0.0996 -1.42865,0.92194 -2.43842,1.24768 -1.75,-1.32031 0.0676,-0.25199 0.12143,-0.50809 0.20313,-0.75586 0.35316,-1.07142 0.95672,-2.18973 1.49805,-3.17774 0.62845,-1.14314 1.36323,-2.22145 2.02343,-3.3457 0.28449,-0.50122 0.58665,-0.99292 0.89063,-1.48242 1.22636,-1.97486 2.71799,-2.84352 4.00195,-2.90039 0.0766,-0.003 0.15154,-0.004 0.22657,-0.002 1.18801,0.0368 2.16601,0.78461 2.53515,1.99218 0.047,-2.6e-4 0.0944,-0.002 0.14063,0 0.74055,0.0261 1.36953,0.33973 1.84375,0.83008 0.11687,-0.014 0.2336,-0.0231 0.34765,-0.0234 2.26455,-0.006 3.89673,2.63685 1.93164,6.37891 -0.0606,0.11539 -0.12104,0.23032 -0.18164,0.3457 -0.52012,1.02757 -1.08595,2.03359 -1.57226,3.07813 -0.63603,1.37146 -1.25725,2.75026 -1.93946,4.09961 -0.45433,0.82493 -0.913,1.64939 -1.47656,2.40234 h 89.23438 v -17.93359 c -2.01919,-0.66364 -4.18208,-1.81125 -6.41602,-3.56836 -0.26321,-0.20704 -0.52781,-0.41407 -0.79102,-0.6211 -2.11339,-1.69495 -4.31187,-3.28359 -6.43945,-4.96093 -1.88042,-1.4231 -3.73335,-2.89266 -5.72656,-4.15625 -12.62101,-8.00106 -9.06279,-19.68239 0.81055,-19.54102 2.76452,0.0396 6.02441,1.00658 9.5625,3.24024 2.43711,1.53859 4.71301,3.31073 7.00976,5.04687 0.65933,0.51425 1.32584,1.0196 1.99024,1.52734 v -80.98632 z" />
    </clipPath>
    <clipPath
       clipPathUnits="userSpaceOnUse"
       id="clipPath8278">
      <path
         id="path8280"
         style="fill:#ff0000;fill-opacity:1;fill-rule:nonzero;stroke:none"
         d="M 412.84375,175.11328 V 297.06641 H 534.79492 V 228.9707 c -0.66372,0.26608 -1.37885,0.50505 -2.1582,0.70703 -1.64235,0.42565 -3.2817,0.86246 -4.93555,1.24219 -2.40781,0.58547 -4.82883,1.18518 -7.31055,1.34375 -13.49772,0.86245 13.52502,-13.58041 0,-13.66211 -0.15473,-0.001 -0.60887,0.0546 -0.46484,-0.002 0.22945,-0.0902 0.48924,-0.0629 0.73242,-0.10352 0.21803,-0.0364 0.43368,-0.0834 0.65039,-0.12695 1.06149,-0.21317 2.11028,-0.46631 3.16211,-0.72266 1.58829,-0.36339 3.16139,-0.78459 4.73828,-1.19336 1.63657,-0.42422 3.12221,-0.58839 4.44336,-0.54492 0.39767,0.0131 0.77507,0.0522 1.14258,0.10157 v -40.89649 h -78.41601 c 0.40688,0.43916 0.8148,0.87809 1.21679,1.32031 1.09789,1.23278 2.198,2.46324 3.31836,3.67579 0.1389,0.1471 0.27907,0.29427 0.41797,0.4414 9.28495,9.83473 -0.67256,19.21918 -9.94336,9.3711 l -0.52734,-0.56055 c -1.13783,-1.23993 -2.2658,-2.48747 -3.38281,-3.7461 -0.96583,-1.06698 -1.92049,-2.16107 -3.01172,-3.09961 -9.28442,-7.98533 13.97511,-1.56454 11.38476,-7.40234 z" />
    </clipPath>
  </defs>
  <g
     inkscape:label="Capa 1"
     id="layer1"
     style="display:none"
     inkscape:export-filename="layer1.png"
     inkscape:export-xdpi="96"
     inkscape:export-ydpi="96"
     inkscape:groupmode="layer"
     transform="translate(-412.84375,-106.25434)">
    <path
       id="path234-3-6"
       style="fill:none;stroke:#62a0ea;stroke-width:5;stroke-linejoin:round"
       d="m 586.34056,318.16656 a 58.475952,58.475952 0 0 1 -58.47595,58.47595 58.475952,58.475952 0 0 1 -58.47596,-58.47595 58.475952,58.475952 0 0 1 58.47596,-58.47595 58.475952,58.475952 0 0 1 58.47595,58.47595 z"
       inkscape:export-filename="unlink-3.svg"
       inkscape:export-xdpi="96"
       inkscape:export-ydpi="96" />
    <path
       id="path234-9-8"
       style="fill:none;stroke:#62a0ea;stroke-width:5;stroke-linejoin:round"
       d="M 653.14895,201.98752 A 58.475952,58.475952 0 0 1 594.673,260.46347 58.475952,58.475952 0 0 1 536.19704,201.98752 58.475952,58.475952 0 0 1 594.673,143.51157 58.475952,58.475952 0 0 1 653.14895,201.98752 Z" />
  </g>
  <g
     inkscape:groupmode="layer"
     id="layer2"
     inkscape:label="Capa 2"
     style="display:none"
     transform="translate(-412.84375,-106.25434)">
    <path
       id="path234-7-4"
       style="display:inline;fill:none;stroke:#2ec27e;stroke-width:5;stroke-linejoin:round"
       d="m 605.14498,279.49946 a 58.475952,58.475952 0 0 1 -58.47595,58.47595 58.475952,58.475952 0 0 1 -58.47596,-58.47595 58.475952,58.475952 0 0 1 58.47596,-58.47595 58.475952,58.475952 0 0 1 58.47595,58.47595 z"
       inkscape:export-filename=".\unlink-2.svg"
       inkscape:export-xdpi="96"
       inkscape:export-ydpi="96"
       clip-path="url(#clipPath7701)" />
    <path
       id="path234-7-2-0"
       style="display:inline;fill:none;stroke:#2ec27e;stroke-width:5;stroke-linejoin:round"
       d="M 212.59015,361.7858 A 58.475952,58.475952 0 0 1 154.1142,420.26175 58.475952,58.475952 0 0 1 95.63824,361.7858 58.475952,58.475952 0 0 1 154.1142,303.30985 58.475952,58.475952 0 0 1 212.59015,361.7858 Z"
       inkscape:export-filename=".\link-3.svg"
       inkscape:export-xdpi="96"
       inkscape:export-ydpi="96"
       clip-path="url(#clipPath7539-2)"
       transform="translate(257.34861,-74.422368)" />
    <path
       id="path234-7-2-9-2"
       style="display:inline;fill:none;stroke:#2ec27e;stroke-width:5;stroke-linejoin:round"
       d="m 270.62978,372.91156 a 58.475952,58.475952 0 0 1 -58.47595,58.47595 58.475952,58.475952 0 0 1 -58.47596,-58.47595 58.475952,58.475952 0 0 1 58.47596,-58.47595 58.475952,58.475952 0 0 1 58.47595,58.47595 z"
       inkscape:export-filename=".\unlink-2.svg"
       inkscape:export-xdpi="96"
       inkscape:export-ydpi="96"
       clip-path="url(#clipPath7713)"
       transform="translate(257.34861,-74.422368)" />
  </g>
  <g
     inkscape:groupmode="layer"
     id="layer3"
     inkscape:label="Capa 3"
     transform="translate(-412.84375,-106.25434)">
    <path
       id="path234-44-5"
       style="display:inline;fill:none;stroke:#ed333b;stroke-width:5;stroke-linejoin:round"
       d="m 568.9109,167.23029 a 58.475952,58.475952 0 0 1 -58.47595,58.47595 58.475952,58.475952 0 0 1 -58.47595,-58.47595 58.475952,58.475952 0 0 1 58.47595,-58.47595 58.475952,58.475952 0 0 1 58.47595,58.47595 z"
       inkscape:export-filename=".\unlink-2.svg"
       inkscape:export-xdpi="96"
       inkscape:export-ydpi="96"
       clip-path="url(#clipPath8202)" />
    <path
       id="path234-44-1-0"
       style="display:inline;fill:none;stroke:#ed333b;stroke-width:5;stroke-linejoin:round"
       d="m 532.29512,236.09014 a 58.475952,58.475952 0 0 1 -58.47595,58.47595 58.475952,58.475952 0 0 1 -58.47595,-58.47595 58.475952,58.475952 0 0 1 58.47595,-58.47596 58.475952,58.475952 0 0 1 58.47595,58.47596 z"
       inkscape:export-filename=".\unlink-2.svg"
       inkscape:export-xdpi="96"
       inkscape:export-ydpi="96"
       clip-path="url(#clipPath8278)" />
    <path
       id="path234-44-8-1-6"
       style="display:inline;fill:none;stroke:#ed333b;stroke-width:5;stroke-linejoin:round"
       d="m 335.00708,335.0071 a 58.475952,58.475952 0 0 1 -58.47595,58.47595 58.475952,58.475952 0 0 1 -58.47595,-58.47595 58.475952,58.475952 0 0 1 58.47595,-58.47596 58.475952,58.475952 0 0 1 58.47595,58.47596 z"
       inkscape:export-filename=".\unlink-2.svg"
       inkscape:export-xdpi="96"
       inkscape:export-ydpi="96"
       clip-path="url(#clipPath8097-3)"
       transform="translate(257.4035,-94.544918)" />
  </g>
</svg>
