<?xml version="1.0" encoding="UTF-8" standalone="no"?>
<!-- Created with Inkscape (http://www.inkscape.org/) -->

<svg
   width="172.13303"
   height="84.1203"
   viewBox="0 0 172.13303 84.1203"
   version="1.1"
   id="SVGRoot"
   sodipodi:docname="unlink filtration.svg"
   inkscape:version="1.2.2 (732a01da63, 2022-12-09)"
   inkscape:export-filename="fil-1.svg"
   inkscape:export-xdpi="96"
   inkscape:export-ydpi="96"
   xmlns:inkscape="http://www.inkscape.org/namespaces/inkscape"
   xmlns:sodipodi="http://sodipodi.sourceforge.net/DTD/sodipodi-0.dtd"
   xmlns="http://www.w3.org/2000/svg"
   xmlns:svg="http://www.w3.org/2000/svg">
  <sodipodi:namedview
     id="namedview170"
     pagecolor="#ffffff"
     bordercolor="#111111"
     borderopacity="1"
     inkscape:showpageshadow="0"
     inkscape:pageopacity="0"
     inkscape:pagecheckerboard="1"
     inkscape:deskcolor="#d1d1d1"
     inkscape:document-units="px"
     showgrid="false"
     inkscape:zoom="2.1145041"
     inkscape:cx="297.70574"
     inkscape:cy="268.6209"
     inkscape:window-width="1718"
     inkscape:window-height="1401"
     inkscape:window-x="1706"
     inkscape:window-y="0"
     inkscape:window-maximized="0"
     inkscape:current-layer="layer5" />
  <defs
     id="defs165">
    <clipPath
       clipPathUnits="userSpaceOnUse"
       id="clipPath7539-2">
      <path
         id="path7541-6"
         style="fill:#ff0000;fill-opacity:1;fill-rule:nonzero;stroke:none"
         d="m 93.138672,300.81055 v 121.95117 h 77.878908 c -1.90056,-1.53198 -3.78558,-3.08418 -5.64649,-4.66406 -1.14414,-0.99689 -2.27857,-2.00449 -3.39062,-3.03711 -3.56184,-3.30744 -2.07682,-6.72133 0.88672,-6.67969 1.15964,0.0163 2.5461,0.56128 3.94531,1.84961 0.99976,0.92055 2.02102,1.82307 3.04688,2.7168 0.70407,0.59695 1.42665,1.17176 2.13671,1.76171 -0.0263,-0.22891 -0.11444,-0.51916 -0.16992,-0.77734 -0.92551,-1.0862 -0.93214,-1.57585 -0.42969,-1.75391 -0.49417,-1.71166 -0.96659,-3.32663 -0.0684,-3.28125 0.31221,0.0158 0.78861,0.22978 1.48633,0.70704 0.28541,0.19522 0.58088,0.37835 0.85743,0.58593 0.15429,0.11583 0.97207,0.84826 1.0957,0.95703 0.50583,0.44503 1.01347,0.88773 1.52148,1.33008 1.45989,-0.003 2.34727,-0.49042 1.09766,-2.53906 -0.0134,-0.022 -0.0603,-0.081 -0.0391,-0.0664 0.0589,0.0405 0.10365,0.0981 0.15625,0.14649 0.10881,0.10026 0.21794,0.19794 0.32617,0.29883 0.5565,0.51879 1.10137,1.04933 1.64258,1.58398 1.09803,1.11352 2.15917,2.26341 3.22851,3.4043 0.74303,0.7805 1.46893,1.57915 2.2461,2.32617 0.45354,0.44035 0.23661,0.2344 0.64843,0.61914 1.46381,1.36751 2.07696,2.76705 2.09571,3.94141 0.0769,0.0605 0.15358,0.12115 0.23047,0.18164 0.16343,0.1286 0.31724,0.25813 0.46289,0.38867 h 26.70507 V 300.81055 Z" />
    </clipPath>
    <clipPath
       clipPathUnits="userSpaceOnUse"
       id="clipPath7713">
      <path
         id="path7715"
         style="fill:#ff0000;fill-opacity:1;fill-rule:nonzero;stroke:none"
         d="m 151.17678,311.93604 v 121.95117 h 121.95117 v -17.27344 c -2.31779,2.00929 -6.595,2.20272 -11.42773,-1.34961 -0.76802,-0.56453 -1.53369,-1.13108 -2.32031,-1.66992 -1.92322,-1.40157 -3.84504,-2.80575 -5.71875,-4.27343 -0.83427,-0.64229 -1.677,-1.27297 -2.5254,-1.89649 -0.14798,-0.10876 -0.43411,-0.13533 -0.44921,-0.31836 -0.0404,-0.48946 1.89119,1.85295 1.38476,0.50391 -3.56507,-9.49683 -7.04427,-14.86919 -3.2168,-14.96289 1.27583,-0.0312 3.36234,0.52425 6.5293,1.70898 0.49903,0.18668 1.01685,0.32986 1.49805,0.5586 1.11237,0.52876 2.10726,1.3333 3.0918,2.06054 1.46009,1.07855 0.40148,0.27929 2.00781,1.50977 1.78288,1.39919 3.61402,2.73383 5.44531,4.06836 0.80165,0.54811 1.58074,1.12454 2.36328,1.69922 1.43013,1.05024 2.52501,2.15174 3.33789,3.25586 v -95.57227 h -79.72656 c 1.15458,0.84921 2.25914,1.76337 3.33594,2.70898 1.36388,1.20408 2.61387,2.52714 3.87695,3.83399 0.51872,0.53604 0.26584,0.27615 0.75195,0.77734 3.32927,3.43258 -0.13753,6.79587 -3.46679,3.36328 -0.49066,-0.50588 -0.23777,-0.24571 -0.75977,-0.78515 -1.17231,-1.21292 -2.328,-2.44266 -3.5918,-3.5625 -0.51555,-0.45406 -0.90738,-0.80892 -1.43945,-1.23828 -0.55562,-0.44833 -1.13732,-0.86375 -1.68945,-1.31641 -1.59416,-1.30701 -2.06647,-2.76552 -1.77735,-3.78125 z m 32.80664,0.91992 c 0.22158,5e-5 0.53551,0.0658 0.95899,0.21289 0.21534,0.0748 0.43401,0.13711 0.64453,0.22461 0.30549,0.1269 0.66525,0.39557 0.91211,0.58008 0.58161,0.4347 1.1042,0.94203 1.63086,1.43945 1.6383,1.66567 3.14038,3.45803 4.68554,5.20899 0.78516,0.8747 0.40586,0.45632 1.13477,1.25781 3.21733,3.53768 -0.35734,6.7881 -3.57422,3.25 -0.7591,-0.83491 -0.36451,-0.39771 -1.18359,-1.31055 -1.45054,-1.64382 -2.86258,-3.32564 -4.38672,-4.90234 -0.40225,-0.38341 -0.51405,-0.49981 -0.91016,-0.83789 -0.397,-0.33885 -0.46978,-0.3387 0.0996,-0.17188 4.15881,1.21839 -2.15397,-4.95171 -0.0117,-4.95117 z" />
    </clipPath>
    <clipPath
       clipPathUnits="userSpaceOnUse"
       id="clipPath8278">
      <path
         id="path8280"
         style="fill:#ff0000;fill-opacity:1;fill-rule:nonzero;stroke:none"
         d="M 412.84375,175.11328 V 297.06641 H 534.79492 V 228.9707 c -0.66372,0.26608 -1.37885,0.50505 -2.1582,0.70703 -1.64235,0.42565 -3.2817,0.86246 -4.93555,1.24219 -2.40781,0.58547 -4.82883,1.18518 -7.31055,1.34375 -13.49772,0.86245 13.52502,-13.58041 0,-13.66211 -0.15473,-0.001 -0.60887,0.0546 -0.46484,-0.002 0.22945,-0.0902 0.48924,-0.0629 0.73242,-0.10352 0.21803,-0.0364 0.43368,-0.0834 0.65039,-0.12695 1.06149,-0.21317 2.11028,-0.46631 3.16211,-0.72266 1.58829,-0.36339 3.16139,-0.78459 4.73828,-1.19336 1.63657,-0.42422 3.12221,-0.58839 4.44336,-0.54492 0.39767,0.0131 0.77507,0.0522 1.14258,0.10157 v -40.89649 h -78.41601 c 0.40688,0.43916 0.8148,0.87809 1.21679,1.32031 1.09789,1.23278 2.198,2.46324 3.31836,3.67579 0.1389,0.1471 0.27907,0.29427 0.41797,0.4414 9.28495,9.83473 -0.67256,19.21918 -9.94336,9.3711 l -0.52734,-0.56055 c -1.13783,-1.23993 -2.2658,-2.48747 -3.38281,-3.7461 -0.96583,-1.06698 -1.92049,-2.16107 -3.01172,-3.09961 -9.28442,-7.98533 13.97511,-1.56454 11.38476,-7.40234 z" />
    </clipPath>
  </defs>
  <g
     inkscape:groupmode="layer"
     id="layer2"
     inkscape:label="Link"
     style="display:none"
     transform="translate(-260.40881,-165.50388)">
    <path
       id="path234-7-2-0"
       style="display:inline;fill:none;stroke:#2ec27e;stroke-width:5;stroke-linejoin:round"
       d="M 212.59015,361.7858 A 58.475952,58.475952 0 0 1 154.1142,420.26175 58.475952,58.475952 0 0 1 95.63824,361.7858 58.475952,58.475952 0 0 1 154.1142,303.30985 58.475952,58.475952 0 0 1 212.59015,361.7858 Z"
       inkscape:export-filename=".\link-3.svg"
       inkscape:export-xdpi="96"
       inkscape:export-ydpi="96"
       clip-path="url(#clipPath7539-2)"
       transform="translate(257.34861,-74.422368)" />
    <path
       id="path234-7-2-9-2"
       style="display:inline;fill:none;stroke:#2ec27e;stroke-width:5;stroke-linejoin:round"
       d="m 270.62978,372.91156 a 58.475952,58.475952 0 0 1 -58.47595,58.47595 58.475952,58.475952 0 0 1 -58.47596,-58.47595 58.475952,58.475952 0 0 1 58.47596,-58.47595 58.475952,58.475952 0 0 1 58.47595,58.47595 z"
       inkscape:export-filename=".\unlink-2.svg"
       inkscape:export-xdpi="96"
       inkscape:export-ydpi="96"
       clip-path="url(#clipPath7713)"
       transform="translate(257.34861,-74.422368)" />
  </g>
  <g
     inkscape:groupmode="layer"
     id="layer3"
     inkscape:label="Barromean"
     style="display:none"
     transform="translate(-260.40881,-165.50388)">
    <path
       id="path234-44"
       style="display:inline;fill:none;stroke:#ed333b;stroke-width:5;stroke-linejoin:round"
       d="m 259.04301,134.98654 a 58.475952,58.475952 0 0 1 -58.47595,58.47595 58.475952,58.475952 0 0 1 -58.47595,-58.47595 58.475952,58.475952 0 0 1 58.47595,-58.475955 58.475952,58.475952 0 0 1 58.47595,58.475955 z"
       inkscape:export-filename=".\borromean-1.svg"
       inkscape:export-xdpi="96"
       inkscape:export-ydpi="96" />
    <path
       id="path234-44-1-0"
       style="display:inline;fill:none;stroke:#ed333b;stroke-width:5;stroke-linejoin:round"
       d="m 532.29512,236.09014 a 58.475952,58.475952 0 0 1 -58.47595,58.47595 58.475952,58.475952 0 0 1 -58.47595,-58.47595 58.475952,58.475952 0 0 1 58.47595,-58.47596 58.475952,58.475952 0 0 1 58.47595,58.47596 z"
       inkscape:export-filename=".\borromean-3.svg"
       inkscape:export-xdpi="96"
       inkscape:export-ydpi="96"
       clip-path="url(#clipPath8278)" />
  </g>
  <g
     inkscape:groupmode="layer"
     id="layer5"
     inkscape:label="H1"
     style="display:none"
     transform="translate(-260.40881,-165.50388)">
    <path
       style="fill:#77767b;fill-opacity:1;stroke:#77767b;stroke-width:3.91636;stroke-linecap:round;stroke-linejoin:round;stroke-dasharray:none;stroke-dashoffset:0;stroke-opacity:1"
       d="M 136.59229,220.85556 H 362.81556"
       id="path9950" />
  </g>
  <g
     inkscape:groupmode="layer"
     id="layer10-9"
     inkscape:label="Filtration"
     style="display:inline"
     transform="translate(13.446467,-90.473669)">
    <path
       style="display:inline;fill:#000000;stroke:none;stroke-linecap:round;stroke-linejoin:round"
       id="path3446-8"
       d="m 96.697594,97.327012 c -2.865734,0.623707 -5.590501,1.663705 -8.190178,3.003388 -4.786216,3.19423 -8.772399,7.52181 -12.033066,12.24218 -0.755628,1.0939 -1.435719,2.23809 -2.153579,3.35714 -3.376581,5.59874 -5.390618,11.88082 -6.024216,18.38484 -0.121194,1.24408 -0.127785,2.49667 -0.191677,3.74501 -0.21308,6.93136 2.134968,12.55282 5.597046,18.38498 2.143116,3.16029 4.57708,6.10964 7.57564,8.49606 2.108862,1.67834 2.89704,2.07116 5.206572,3.50338 4.146251,2.22834 8.581198,4.0262 13.191366,5.03731 3.333078,0.73101 4.508988,0.75521 7.901628,1.10567 9.36948,0.15947 17.86501,-2.42194 26.37146,-6.07188 3.84478,-1.81786 7.5665,-3.93004 10.82058,-6.68852 1.77358,-1.50347 2.25707,-2.09289 3.83316,-3.74262 3.36363,-3.72477 5.67695,-8.17285 7.57288,-12.77909 1.69441,-4.2925 2.34751,-8.83136 2.49993,-13.4134 0.14398,-4.37603 -1.08715,-8.54223 -2.95216,-12.44976 -1.73593,-3.3757 -4.24963,-6.23422 -6.82749,-8.98408 -2.27732,-2.49496 -4.91916,-4.56798 -7.64179,-6.5458 -3.58091,-2.57284 -7.41329,-4.756865 -11.28077,-6.861988 -3.3327,-1.831282 -6.8495,-3.256792 -10.45445,-4.445627 -3.35306,-0.9266 -6.88638,-1.450668 -10.37187,-1.187179 -0.88229,0.0667 -1.7562,0.217416 -2.6343,0.326124 -5.21289,0.850128 -9.973042,3.118283 -14.751725,5.247722 -2.44108,1.087909 -0.902544,4.540118 1.538535,3.452208 v 0 c 4.440952,-1.979435 8.85461,-4.119184 13.69069,-4.950687 3.92311,-0.515921 7.52672,-0.436509 11.34682,0.701807 3.39042,1.11406 6.69622,2.453993 9.82969,4.17542 3.72447,2.02636 7.41721,4.1253 10.86689,6.60067 2.53103,1.83644 4.99221,3.75169 7.10613,6.07354 2.31731,2.46708 4.59669,5.01946 6.17861,8.03818 1.62946,3.34531 2.69432,6.93182 2.57954,10.69022 -0.12251,4.13094 -0.70517,8.22484 -2.21923,12.09871 -1.70546,4.17652 -3.78614,8.21689 -6.81302,11.60664 -1.42149,1.49822 -1.84312,2.01758 -3.44181,3.38548 -2.98901,2.55751 -6.4294,4.49359 -9.96823,6.18005 -7.76934,3.35043 -15.94085,5.88505 -24.49429,5.78387 -3.11323,-0.31365 -4.26497,-0.34043 -7.31567,-0.99869 -4.251403,-0.91734 -8.343045,-2.56811 -12.174623,-4.59969 -2.114686,-1.30106 -2.793642,-1.63269 -4.722226,-3.14803 -2.69558,-2.11801 -4.865441,-4.75887 -6.800381,-7.57193 -2.994922,-4.99598 -5.303125,-10.30743 -5.068159,-16.26358 0.05324,-1.1355 0.0536,-2.27472 0.159731,-3.4065 0.559364,-5.96483 2.375215,-11.73341 5.464668,-16.87161 3.453452,-5.41058 7.367847,-10.64778 12.755285,-14.28768 2.326883,-1.24067 4.811271,-2.11806 7.38718,-2.69384 2.586885,-0.67113 1.637769,-4.329548 -0.949121,-3.658418 z" />
    <path
       style="fill:#000000;stroke:none;stroke-linecap:round;stroke-linejoin:round"
       id="path4315"
       d="m 70.67774,129.13726 c -1.91867,-2.525 -3.17468,-5.49748 -4.58946,-8.31976 -1.55727,-3.08091 -3.09957,-6.17506 -5.09865,-9.00075 -1.27027,-1.79553 -1.83303,-2.39113 -3.23025,-4.04263 -3.30053,-3.81318 -7.47761,-6.58543 -11.84747,-9.010527 -4.41711,-2.52336 -9.1761,-4.26502 -14.00995,-5.78657 -4.37892,-1.17218 -8.86944,-2.38739 -13.43493,-2.4989 -0.98879,-0.0241 -1.97738,0.056 -2.96607,0.0841 -4.48689,0.38078 -8.83351,1.68494 -12.65696,4.0983 -0.70214,0.44319 -1.35523,0.95969 -2.03285,1.43953 -4.11099,3.28126 -6.23797,7.216447 -8.11368,12.013637 -1.49913,4.26308 -2.83104,8.58267 -3.99785,12.94797 -1.24525,4.24008 -1.78254,8.60305 -2.06627,12.99698 -0.30267,3.98836 0.26956,7.91299 1.47943,11.70472 1.30187,3.42789 3.2929,6.49106 5.58214,9.3302 2.05944,2.58611 4.54304,4.71008 7.26028,6.56657 3.20429,1.86279 6.84597,2.9635 10.54379,3.25062 0.95695,0.0743 1.91901,0.05 2.87852,0.075 6.12553,-0.24096 12.06493,-1.83494 17.81196,-3.86944 4.93642,-1.93841 9.59838,-4.50619 14.15817,-7.19684 4.39465,-2.65459 8.36405,-5.92293 12.18395,-9.33429 2.8875,-2.47101 5.31641,-5.3728 7.6471,-8.3549 1.23805,-1.55718 2.41197,-3.16546 3.71236,-4.67203 1.15887,-1.30078 1.01041,-0.58083 -2.13342,-3.25637 -0.13129,-0.11173 -0.28859,0.18869 -0.43289,0.28303 -2.23687,1.46248 -0.16861,4.62589 2.06826,3.1634 v 0 c 0.1422,-0.093 0.50419,-0.12777 0.4266,-0.27892 -1.89122,-3.68396 -1.49272,-3.82166 -2.79102,-2.37916 -1.33848,1.55391 -2.55568,3.20502 -3.82785,4.81269 -2.19231,2.80529 -4.46602,5.54364 -7.18747,7.86395 -3.63396,3.24909 -7.40792,6.36591 -11.58743,8.89814 -4.34971,2.57052 -8.79766,5.02341 -13.5013,6.88973 -5.31095,1.89285 -10.80299,3.37595 -16.46287,3.65242 -4.09638,-0.0732 -7.77631,-0.58913 -11.37907,-2.67096 -2.41828,-1.64072 -4.62115,-3.5229 -6.44981,-5.8204 -2.00794,-2.47028 -3.75105,-5.13904 -4.92377,-8.11518 -1.09381,-3.32963 -1.56166,-6.79231 -1.30389,-10.29996 0.26428,-4.14678 0.76484,-8.26304 1.94598,-12.26353 1.12991,-4.23214 2.42272,-8.41874 3.86901,-12.55382 1.52414,-3.94501 3.40583,-7.6159 6.78957,-10.308947 3.82947,-2.77098 7.84928,-4.47011 12.61354,-4.83458 0.84724,-0.0314 1.69406,-0.11127 2.5417,-0.0942 4.28268,0.0863 8.49517,1.24946 12.60323,2.33693 4.59348,1.44308 9.11794,3.08765 13.31386,5.488117 3.97554,2.19281 7.78504,4.69304 10.79463,8.14782 3.26634,3.84295 5.72646,7.69802 7.83289,12.29286 1.62399,3.23944 3.04395,6.70254 5.45628,9.44999 1.99688,1.7762 4.50881,-1.04781 2.51193,-2.82401 z" />
  </g>
</svg>
