<?xml version="1.0" encoding="UTF-8" standalone="no"?>
<!-- Created with Inkscape (http://www.inkscape.org/) -->

<svg
   width="121.95191"
   height="121.9519"
   viewBox="0 0 121.95191 121.9519"
   version="1.1"
   id="SVGRoot"
   sodipodi:docname="unlink filtration.svg"
   inkscape:version="1.2.2 (732a01da63, 2022-12-09)"
   xmlns:inkscape="http://www.inkscape.org/namespaces/inkscape"
   xmlns:sodipodi="http://sodipodi.sourceforge.net/DTD/sodipodi-0.dtd"
   xmlns="http://www.w3.org/2000/svg"
   xmlns:svg="http://www.w3.org/2000/svg">
  <sodipodi:namedview
     id="namedview170"
     pagecolor="#ffffff"
     bordercolor="#111111"
     borderopacity="1"
     inkscape:showpageshadow="0"
     inkscape:pageopacity="0"
     inkscape:pagecheckerboard="1"
     inkscape:deskcolor="#d1d1d1"
     inkscape:document-units="px"
     showgrid="false"
     inkscape:zoom="0.914906"
     inkscape:cx="302.76334"
     inkscape:cy="282.54269"
     inkscape:window-width="1354"
     inkscape:window-height="838"
     inkscape:window-x="262"
     inkscape:window-y="227"
     inkscape:window-maximized="0"
     inkscape:current-layer="layer2" />
  <defs
     id="defs165" />
  <g
     inkscape:label="Capa 1"
     id="layer1"
     style="display:none"
     inkscape:export-filename="layer1.png"
     inkscape:export-xdpi="96"
     inkscape:export-ydpi="96"
     inkscape:groupmode="layer"
     transform="translate(-94.231239,-119.91694)">
    <path
       id="path234"
       style="fill:none;stroke:#62a0ea;stroke-width:5;stroke-linejoin:round"
       d="m 210.95064,160.12573 a 58.475952,58.475952 0 0 1 -58.47595,58.47595 58.475952,58.475952 0 0 1 -58.475956,-58.47595 58.475952,58.475952 0 0 1 58.475956,-58.47595 58.475952,58.475952 0 0 1 58.47595,58.47595 z"
       inkscape:export-filename=".\unlink-2.svg"
       inkscape:export-xdpi="96"
       inkscape:export-ydpi="96" />
  </g>
  <g
     inkscape:groupmode="layer"
     id="layer2"
     inkscape:label="Capa 2"
     style="display:inline"
     transform="translate(-94.231239,-119.91694)">
    <path
       id="path234-7"
       style="display:inline;fill:none;stroke:#2ec27e;stroke-width:5;stroke-linejoin:round"
       d="m 213.68315,180.89289 a 58.475952,58.475952 0 0 1 -58.47595,58.47595 58.475952,58.475952 0 0 1 -58.47596,-58.47595 58.475952,58.475952 0 0 1 58.47596,-58.47595 58.475952,58.475952 0 0 1 58.47595,58.47595 z"
       inkscape:export-filename=".\unlink-2.svg"
       inkscape:export-xdpi="96"
       inkscape:export-ydpi="96" />
  </g>
</svg>
