<?xml version="1.0" encoding="UTF-8" standalone="no"?>
<!-- Created with Inkscape (http://www.inkscape.org/) -->

<svg
   width="203.35242"
   height="189.47409"
   viewBox="0 0 203.35242 189.47409"
   version="1.1"
   id="SVGRoot"
   sodipodi:docname="unlink filtration.svg"
   inkscape:version="1.2.2 (732a01da63, 2022-12-09)"
   inkscape:export-filename="torus.svg"
   inkscape:export-xdpi="96"
   inkscape:export-ydpi="96"
   xmlns:inkscape="http://www.inkscape.org/namespaces/inkscape"
   xmlns:sodipodi="http://sodipodi.sourceforge.net/DTD/sodipodi-0.dtd"
   xmlns="http://www.w3.org/2000/svg"
   xmlns:svg="http://www.w3.org/2000/svg">
  <sodipodi:namedview
     id="namedview170"
     pagecolor="#ffffff"
     bordercolor="#111111"
     borderopacity="1"
     inkscape:showpageshadow="0"
     inkscape:pageopacity="0"
     inkscape:pagecheckerboard="1"
     inkscape:deskcolor="#d1d1d1"
     inkscape:document-units="px"
     showgrid="false"
     inkscape:zoom="2.1145041"
     inkscape:cx="297.70574"
     inkscape:cy="268.6209"
     inkscape:window-width="1718"
     inkscape:window-height="1401"
     inkscape:window-x="1706"
     inkscape:window-y="0"
     inkscape:window-maximized="0"
     inkscape:current-layer="layer5" />
  <defs
     id="defs165">
    <clipPath
       clipPathUnits="userSpaceOnUse"
       id="clipPath7539-2">
      <path
         id="path7541-6"
         style="fill:#ff0000;fill-opacity:1;fill-rule:nonzero;stroke:none"
         d="m 93.138672,300.81055 v 121.95117 h 77.878908 c -1.90056,-1.53198 -3.78558,-3.08418 -5.64649,-4.66406 -1.14414,-0.99689 -2.27857,-2.00449 -3.39062,-3.03711 -3.56184,-3.30744 -2.07682,-6.72133 0.88672,-6.67969 1.15964,0.0163 2.5461,0.56128 3.94531,1.84961 0.99976,0.92055 2.02102,1.82307 3.04688,2.7168 0.70407,0.59695 1.42665,1.17176 2.13671,1.76171 -0.0263,-0.22891 -0.11444,-0.51916 -0.16992,-0.77734 -0.92551,-1.0862 -0.93214,-1.57585 -0.42969,-1.75391 -0.49417,-1.71166 -0.96659,-3.32663 -0.0684,-3.28125 0.31221,0.0158 0.78861,0.22978 1.48633,0.70704 0.28541,0.19522 0.58088,0.37835 0.85743,0.58593 0.15429,0.11583 0.97207,0.84826 1.0957,0.95703 0.50583,0.44503 1.01347,0.88773 1.52148,1.33008 1.45989,-0.003 2.34727,-0.49042 1.09766,-2.53906 -0.0134,-0.022 -0.0603,-0.081 -0.0391,-0.0664 0.0589,0.0405 0.10365,0.0981 0.15625,0.14649 0.10881,0.10026 0.21794,0.19794 0.32617,0.29883 0.5565,0.51879 1.10137,1.04933 1.64258,1.58398 1.09803,1.11352 2.15917,2.26341 3.22851,3.4043 0.74303,0.7805 1.46893,1.57915 2.2461,2.32617 0.45354,0.44035 0.23661,0.2344 0.64843,0.61914 1.46381,1.36751 2.07696,2.76705 2.09571,3.94141 0.0769,0.0605 0.15358,0.12115 0.23047,0.18164 0.16343,0.1286 0.31724,0.25813 0.46289,0.38867 h 26.70507 V 300.81055 Z" />
    </clipPath>
    <clipPath
       clipPathUnits="userSpaceOnUse"
       id="clipPath7701">
      <path
         id="path7703"
         style="fill:#ff0000;fill-opacity:1;fill-rule:nonzero;stroke:none"
         d="m 485.69336,218.52344 v 18.49023 c 0.42829,-0.0916 1.20097,-0.12787 2.46484,-0.12695 0.60952,4.4e-4 1.32863,0.009 2.17383,0.0234 2.49164,0.043 4.5391,1.31506 6.54688,2.63476 1.19526,0.76585 2.23607,1.73669 3.37695,2.57422 0.55313,0.41846 1.09994,0.84265 1.66406,1.24609 11.00139,7.86782 3.05265,18.98118 -7.94726,11.11133 -0.64822,-0.46377 -1.28046,-0.9474 -1.91602,-1.42773 -0.9086,-0.68806 -1.77506,-1.4301 -2.69922,-2.09766 -0.15223,-0.1008 -0.30188,-0.20343 -0.45508,-0.30273 -0.16438,-0.10657 -0.33411,-0.20427 -0.49609,-0.31446 -0.0279,-0.019 -0.10607,-0.072 -0.0723,-0.0723 0.29929,-0.002 1.87385,0.63432 1.99805,0.31055 3.02667,-7.89049 -2.98354,-11.333 -4.63867,-12.75782 v 102.66024 h 121.9512 V 218.52344 Z" />
    </clipPath>
    <clipPath
       clipPathUnits="userSpaceOnUse"
       id="clipPath7713">
      <path
         id="path7715"
         style="fill:#ff0000;fill-opacity:1;fill-rule:nonzero;stroke:none"
         d="m 151.17678,311.93604 v 121.95117 h 121.95117 v -17.27344 c -2.31779,2.00929 -6.595,2.20272 -11.42773,-1.34961 -0.76802,-0.56453 -1.53369,-1.13108 -2.32031,-1.66992 -1.92322,-1.40157 -3.84504,-2.80575 -5.71875,-4.27343 -0.83427,-0.64229 -1.677,-1.27297 -2.5254,-1.89649 -0.14798,-0.10876 -0.43411,-0.13533 -0.44921,-0.31836 -0.0404,-0.48946 1.89119,1.85295 1.38476,0.50391 -3.56507,-9.49683 -7.04427,-14.86919 -3.2168,-14.96289 1.27583,-0.0312 3.36234,0.52425 6.5293,1.70898 0.49903,0.18668 1.01685,0.32986 1.49805,0.5586 1.11237,0.52876 2.10726,1.3333 3.0918,2.06054 1.46009,1.07855 0.40148,0.27929 2.00781,1.50977 1.78288,1.39919 3.61402,2.73383 5.44531,4.06836 0.80165,0.54811 1.58074,1.12454 2.36328,1.69922 1.43013,1.05024 2.52501,2.15174 3.33789,3.25586 v -95.57227 h -79.72656 c 1.15458,0.84921 2.25914,1.76337 3.33594,2.70898 1.36388,1.20408 2.61387,2.52714 3.87695,3.83399 0.51872,0.53604 0.26584,0.27615 0.75195,0.77734 3.32927,3.43258 -0.13753,6.79587 -3.46679,3.36328 -0.49066,-0.50588 -0.23777,-0.24571 -0.75977,-0.78515 -1.17231,-1.21292 -2.328,-2.44266 -3.5918,-3.5625 -0.51555,-0.45406 -0.90738,-0.80892 -1.43945,-1.23828 -0.55562,-0.44833 -1.13732,-0.86375 -1.68945,-1.31641 -1.59416,-1.30701 -2.06647,-2.76552 -1.77735,-3.78125 z m 32.80664,0.91992 c 0.22158,5e-5 0.53551,0.0658 0.95899,0.21289 0.21534,0.0748 0.43401,0.13711 0.64453,0.22461 0.30549,0.1269 0.66525,0.39557 0.91211,0.58008 0.58161,0.4347 1.1042,0.94203 1.63086,1.43945 1.6383,1.66567 3.14038,3.45803 4.68554,5.20899 0.78516,0.8747 0.40586,0.45632 1.13477,1.25781 3.21733,3.53768 -0.35734,6.7881 -3.57422,3.25 -0.7591,-0.83491 -0.36451,-0.39771 -1.18359,-1.31055 -1.45054,-1.64382 -2.86258,-3.32564 -4.38672,-4.90234 -0.40225,-0.38341 -0.51405,-0.49981 -0.91016,-0.83789 -0.397,-0.33885 -0.46978,-0.3387 0.0996,-0.17188 4.15881,1.21839 -2.15397,-4.95171 -0.0117,-4.95117 z" />
    </clipPath>
    <clipPath
       clipPathUnits="userSpaceOnUse"
       id="clipPath8097">
      <path
         id="path8099"
         style="fill:#ff0000;fill-opacity:1;fill-rule:nonzero;stroke:none"
         d="M 215.55469,274.03125 V 395.98242 H 337.50781 V 274.03125 H 253.8457 c 0.92531,0.63561 1.81125,1.32668 2.66797,2.05664 1.23755,1.00101 2.20339,2.26115 3.21875,3.47266 5.19289,6.19609 3.5122,11.82485 -0.52344,13.13086 -2.22172,2.76848 -7.15961,3.29436 -12.31836,-1.32422 -0.20497,-0.18354 -0.41022,-0.36724 -0.61523,-0.55078 -0.8536,-0.8225 -1.69155,-1.65962 -2.51562,-2.51172 -0.91279,-0.91012 -1.89708,-1.7418 -2.87891,-2.57617 -1.19382,-1.01807 -2.38855,-2.03921 -3.49219,-3.15625 -3.0111,-3.04776 -4.09656,-6.09908 -3.875,-8.54102 z m 37.71093,96.54297 c 7.64217,-0.0735 9.8385,8.92866 0.0293,13.88281 -2.09301,1.05708 -4.20583,2.07316 -6.28906,3.15039 -1.6407,0.80274 -3.22005,1.72078 -4.73828,2.73438 -11.24873,7.50989 -18.83753,-3.95281 -7.54102,-11.39063 1.93622,-1.27484 3.92882,-2.46217 6.01172,-3.48437 2.13695,-1.10171 4.30228,-2.14531 6.44727,-3.23047 2.26287,-1.1448 4.31652,-1.64515 6.08007,-1.66211 z" />
    </clipPath>
    <clipPath
       clipPathUnits="userSpaceOnUse"
       id="clipPath8097-3">
      <path
         id="path8099-0"
         style="fill:#ff0000;fill-opacity:1;fill-rule:nonzero;stroke:none"
         d="M 215.55469,274.03125 V 395.98242 H 337.50781 V 274.03125 H 253.8457 c 0.92531,0.63561 1.81125,1.32668 2.66797,2.05664 1.23755,1.00101 2.20339,2.26115 3.21875,3.47266 5.19289,6.19609 3.5122,11.82485 -0.52344,13.13086 -2.22172,2.76848 -7.15961,3.29436 -12.31836,-1.32422 -0.20497,-0.18354 -0.41022,-0.36724 -0.61523,-0.55078 -0.8536,-0.8225 -1.69155,-1.65962 -2.51562,-2.51172 -0.91279,-0.91012 -1.89708,-1.7418 -2.87891,-2.57617 -1.19382,-1.01807 -2.38855,-2.03921 -3.49219,-3.15625 -3.0111,-3.04776 -4.09656,-6.09908 -3.875,-8.54102 z m 37.71093,96.54297 c 7.64217,-0.0735 9.8385,8.92866 0.0293,13.88281 -2.09301,1.05708 -4.20583,2.07316 -6.28906,3.15039 -1.6407,0.80274 -3.22005,1.72078 -4.73828,2.73438 -11.24873,7.50989 -18.83753,-3.95281 -7.54102,-11.39063 1.93622,-1.27484 3.92882,-2.46217 6.01172,-3.48437 2.13695,-1.10171 4.30228,-2.14531 6.44727,-3.23047 2.26287,-1.1448 4.31652,-1.64515 6.08007,-1.66211 z" />
    </clipPath>
    <clipPath
       clipPathUnits="userSpaceOnUse"
       id="clipPath8278">
      <path
         id="path8280"
         style="fill:#ff0000;fill-opacity:1;fill-rule:nonzero;stroke:none"
         d="M 412.84375,175.11328 V 297.06641 H 534.79492 V 228.9707 c -0.66372,0.26608 -1.37885,0.50505 -2.1582,0.70703 -1.64235,0.42565 -3.2817,0.86246 -4.93555,1.24219 -2.40781,0.58547 -4.82883,1.18518 -7.31055,1.34375 -13.49772,0.86245 13.52502,-13.58041 0,-13.66211 -0.15473,-0.001 -0.60887,0.0546 -0.46484,-0.002 0.22945,-0.0902 0.48924,-0.0629 0.73242,-0.10352 0.21803,-0.0364 0.43368,-0.0834 0.65039,-0.12695 1.06149,-0.21317 2.11028,-0.46631 3.16211,-0.72266 1.58829,-0.36339 3.16139,-0.78459 4.73828,-1.19336 1.63657,-0.42422 3.12221,-0.58839 4.44336,-0.54492 0.39767,0.0131 0.77507,0.0522 1.14258,0.10157 v -40.89649 h -78.41601 c 0.40688,0.43916 0.8148,0.87809 1.21679,1.32031 1.09789,1.23278 2.198,2.46324 3.31836,3.67579 0.1389,0.1471 0.27907,0.29427 0.41797,0.4414 9.28495,9.83473 -0.67256,19.21918 -9.94336,9.3711 l -0.52734,-0.56055 c -1.13783,-1.23993 -2.2658,-2.48747 -3.38281,-3.7461 -0.96583,-1.06698 -1.92049,-2.16107 -3.01172,-3.09961 -9.28442,-7.98533 13.97511,-1.56454 11.38476,-7.40234 z" />
    </clipPath>
  </defs>
  <g
     inkscape:label="Unlink"
     id="layer1"
     style="display:none"
     inkscape:export-filename="layer1.png"
     inkscape:export-xdpi="96"
     inkscape:export-ydpi="96"
     inkscape:groupmode="layer"
     transform="translate(-288.46231,-272.72894)">
    <path
       id="path234-3-6"
       style="fill:none;stroke:#62a0ea;stroke-width:5;stroke-linejoin:round"
       d="m 586.34056,318.16656 a 58.475952,58.475952 0 0 1 -58.47595,58.47595 58.475952,58.475952 0 0 1 -58.47596,-58.47595 58.475952,58.475952 0 0 1 58.47596,-58.47595 58.475952,58.475952 0 0 1 58.47595,58.47595 z"
       inkscape:export-filename="unlink-3.svg"
       inkscape:export-xdpi="96"
       inkscape:export-ydpi="96" />
    <path
       id="path234-4"
       style="display:inline;fill:none;stroke:#62a0ea;stroke-width:5;stroke-linejoin:round"
       d="m 378.77522,425.91385 a 58.475952,58.475952 0 0 1 -58.47595,58.47595 58.475952,58.475952 0 0 1 -58.47596,-58.47595 58.475952,58.475952 0 0 1 58.47596,-58.47595 58.475952,58.475952 0 0 1 58.47595,58.47595 z"
       inkscape:export-filename="unlink.svg"
       inkscape:export-xdpi="96"
       inkscape:export-ydpi="96" />
  </g>
  <g
     inkscape:groupmode="layer"
     id="layer2"
     inkscape:label="Link"
     style="display:none"
     transform="translate(-288.46231,-272.72894)">
    <path
       id="path234-7-4"
       style="display:inline;fill:none;stroke:#2ec27e;stroke-width:5;stroke-linejoin:round"
       d="m 605.14498,279.49946 a 58.475952,58.475952 0 0 1 -58.47595,58.47595 58.475952,58.475952 0 0 1 -58.47596,-58.47595 58.475952,58.475952 0 0 1 58.47596,-58.47595 58.475952,58.475952 0 0 1 58.47595,58.47595 z"
       inkscape:export-filename=".\unlink-2.svg"
       inkscape:export-xdpi="96"
       inkscape:export-ydpi="96"
       clip-path="url(#clipPath7701)" />
    <path
       id="path234-7-2-0"
       style="display:inline;fill:none;stroke:#2ec27e;stroke-width:5;stroke-linejoin:round"
       d="M 212.59015,361.7858 A 58.475952,58.475952 0 0 1 154.1142,420.26175 58.475952,58.475952 0 0 1 95.63824,361.7858 58.475952,58.475952 0 0 1 154.1142,303.30985 58.475952,58.475952 0 0 1 212.59015,361.7858 Z"
       inkscape:export-filename=".\link-3.svg"
       inkscape:export-xdpi="96"
       inkscape:export-ydpi="96"
       clip-path="url(#clipPath7539-2)"
       transform="translate(257.34861,-74.422368)" />
    <path
       id="path234-7-2-9-2"
       style="display:inline;fill:none;stroke:#2ec27e;stroke-width:5;stroke-linejoin:round"
       d="m 270.62978,372.91156 a 58.475952,58.475952 0 0 1 -58.47595,58.47595 58.475952,58.475952 0 0 1 -58.47596,-58.47595 58.475952,58.475952 0 0 1 58.47596,-58.47595 58.475952,58.475952 0 0 1 58.47595,58.47595 z"
       inkscape:export-filename=".\unlink-2.svg"
       inkscape:export-xdpi="96"
       inkscape:export-ydpi="96"
       clip-path="url(#clipPath7713)"
       transform="translate(257.34861,-74.422368)" />
  </g>
  <g
     inkscape:groupmode="layer"
     id="layer3"
     inkscape:label="Barromean"
     style="display:none"
     transform="translate(-288.46231,-272.72894)">
    <path
       id="path234-44-8-1"
       style="display:inline;fill:none;stroke:#ed333b;stroke-width:5;stroke-linejoin:round"
       d="m 335.00708,335.0071 a 58.475952,58.475952 0 0 1 -58.47595,58.47595 58.475952,58.475952 0 0 1 -58.47595,-58.47595 58.475952,58.475952 0 0 1 58.47595,-58.47596 58.475952,58.475952 0 0 1 58.47595,58.47596 z"
       inkscape:export-filename=".\unlink-2.svg"
       inkscape:export-xdpi="96"
       inkscape:export-ydpi="96"
       clip-path="url(#clipPath8097)" />
    <path
       id="path234-44-1-0"
       style="display:inline;fill:none;stroke:#ed333b;stroke-width:5;stroke-linejoin:round"
       d="m 532.29512,236.09014 a 58.475952,58.475952 0 0 1 -58.47595,58.47595 58.475952,58.475952 0 0 1 -58.47595,-58.47595 58.475952,58.475952 0 0 1 58.47595,-58.47596 58.475952,58.475952 0 0 1 58.47595,58.47596 z"
       inkscape:export-filename=".\borromean-3.svg"
       inkscape:export-xdpi="96"
       inkscape:export-ydpi="96"
       clip-path="url(#clipPath8278)" />
    <path
       id="path234-44-8-1-6"
       style="display:inline;fill:none;stroke:#ed333b;stroke-width:5;stroke-linejoin:round"
       d="m 335.00708,335.0071 a 58.475952,58.475952 0 0 1 -58.47595,58.47595 58.475952,58.475952 0 0 1 -58.47595,-58.47595 58.475952,58.475952 0 0 1 58.47595,-58.47596 58.475952,58.475952 0 0 1 58.47595,58.47596 z"
       inkscape:export-filename=".\unlink-2.svg"
       inkscape:export-xdpi="96"
       inkscape:export-ydpi="96"
       clip-path="url(#clipPath8097-3)"
       transform="translate(257.4035,-94.544918)" />
  </g>
  <g
     inkscape:groupmode="layer"
     id="layer4"
     inkscape:label="Link Barcodes"
     style="display:none"
     transform="translate(-288.46231,-272.72894)">
    <path
       style="fill:#000000;fill-opacity:1;stroke:#000000;stroke-width:3.6579;stroke-linecap:round;stroke-linejoin:round;stroke-dasharray:none;stroke-dashoffset:0;stroke-opacity:1"
       d="M 356.12433,415.70029 H 109.46939"
       id="path9089-3" />
    <path
       style="fill:#000000;fill-opacity:1;stroke:#000000;stroke-width:4;stroke-linecap:round;stroke-linejoin:round;stroke-dasharray:none;stroke-dashoffset:0;stroke-opacity:1"
       d="m 326.31764,411.20751 v 10.87725"
       id="path9751-0" />
    <text
       xml:space="preserve"
       style="font-style:normal;font-variant:normal;font-weight:normal;font-stretch:normal;font-size:16px;font-family:'Times New Roman';-inkscape-font-specification:'Times New Roman, ';display:inline;fill:#000000;stroke:none;stroke-linecap:round;stroke-linejoin:round"
       x="323.41757"
       y="438.8125"
       id="text2637"><tspan
         sodipodi:role="line"
         id="tspan2635"
         x="323.41757"
         y="438.8125">3</tspan></text>
  </g>
  <g
     inkscape:groupmode="layer"
     id="layer5"
     inkscape:label="H1"
     style="display:none"
     transform="translate(-288.46231,-272.72894)">
    <path
       style="fill:#77767b;fill-opacity:1;stroke:#77767b;stroke-width:3.89691;stroke-linecap:round;stroke-linejoin:round;stroke-dasharray:none;stroke-dashoffset:0;stroke-opacity:1"
       d="M 222.64549,277.60646 H 359.99701"
       id="path10082" />
    <path
       style="fill:#77767b;fill-opacity:1;stroke:#77767b;stroke-width:3.36966;stroke-linecap:round;stroke-linejoin:round;stroke-dasharray:none;stroke-dashoffset:0;stroke-opacity:1"
       d="m 324.29657,332.70213 h 32.89051"
       id="path10084" />
  </g>
  <g
     inkscape:groupmode="layer"
     id="layer7"
     inkscape:label="S"
     style="display:inline"
     transform="translate(-288.46231,-272.72894)">
    <path
       style="fill:#000000;stroke:none;stroke-linecap:round;stroke-linejoin:round"
       id="path3267"
       d="m 367.4504,342.06677 c -2.89808,-1.86436 -6.30818,-2.46968 -9.62701,-3.14875 -5.23653,-1.02034 -10.52893,-1.87626 -15.88246,-1.76388 -1.17837,0.0247 -2.35334,0.13585 -3.53001,0.20377 -3.74593,0.5209 -7.42438,1.41824 -10.92627,2.86232 -3.60455,1.48642 -6.98531,3.4212 -10.34335,5.38247 -4.49612,2.79961 -8.44881,6.37991 -11.91982,10.36868 -2.02328,2.32508 -2.77254,3.48466 -4.55594,5.96362 -3.2035,4.65268 -5.7802,9.72615 -7.71917,15.03113 -0.39803,1.08897 -0.7384,2.19816 -1.10761,3.29724 -1.81794,5.67898 -2.8684,11.58519 -3.24391,17.53411 -0.0793,1.25645 -0.0884,2.51635 -0.13254,3.77453 0.01,2.21902 -0.0582,4.67634 0.26658,6.88358 0.65285,4.43607 2.10361,8.76541 3.84799,12.87862 0.60191,1.41929 1.29426,2.79849 1.94139,4.19774 2.29951,4.57128 4.94179,8.97021 8.1296,12.9804 1.76944,2.22591 2.31534,2.72559 4.23057,4.76492 2.8387,2.84529 6.04215,5.2945 9.50128,7.3373 1.90932,1.12756 3.48251,1.89542 5.44661,2.89923 3.62338,1.71599 7.26147,3.443 11.0789,4.69281 2.86342,0.93747 4.02591,1.16832 7.00135,1.91144 5.54583,1.38515 11.19584,2.25809 16.92476,2.05602 1.16128,-0.041 2.31875,-0.15627 3.47813,-0.2344 6.60409,-0.66186 13.14593,-1.81647 19.67404,-2.99244 5.10855,-0.93173 10.23305,-2.05655 14.98611,-4.21269 0.99087,-0.44949 1.94166,-0.98257 2.91249,-1.47386 3.95117,-2.33235 7.46493,-5.30694 10.581,-8.66365 1.88461,-2.03015 2.61723,-3.02365 4.33354,-5.16735 2.40224,-3.20844 4.77684,-6.46033 6.7269,-9.97039 1.13203,-2.03761 1.63163,-3.1798 2.62454,-5.27718 2.44921,-5.22114 4.00322,-10.73864 5.00089,-16.40152 0.70899,-4.48614 0.83894,-9.03292 0.89597,-13.56563 0.20774,-4.39603 -0.95939,-8.66504 -2.20184,-12.83665 -1.515,-4.74492 -3.53034,-9.30532 -5.6225,-13.81819 -1.31278,-2.94171 -2.8809,-5.74312 -4.68112,-8.41104 -2.19231,-3.06731 -5.27309,-5.32868 -8.19416,-7.65282 -3.75906,-2.95187 -7.89027,-5.39861 -12.12195,-7.6038 -3.77506,-1.93344 -7.87803,-2.9958 -11.98796,-3.93422 -3.67978,-0.86652 -7.45439,-1.13085 -11.21887,-1.30311 -2.38095,-0.18104 -4.74177,0.0563 -7.07149,0.53364 -1.09793,0.22597 -0.54002,0.12681 -1.6741,0.29536 -2.64231,0.40079 -2.07551,4.13758 0.56679,3.73679 v 0 c 1.32898,-0.20489 0.70658,-0.0909 1.86928,-0.33023 2.02233,-0.41846 4.06903,-0.62709 6.13737,-0.45996 3.53955,0.16077 7.09027,0.39786 10.55056,1.21241 3.79624,0.86488 7.59329,1.82425 11.08434,3.60238 4.01989,2.08674 7.94112,4.41267 11.513,7.20846 2.62003,2.08413 5.41106,4.09318 7.41578,6.81148 1.69145,2.49821 3.15349,5.12714 4.3837,7.88462 2.01666,4.34801 3.9628,8.74031 5.42987,13.30983 1.13944,3.80382 2.23942,7.69609 2.04407,11.70777 -0.0539,4.33032 -0.17053,8.67459 -0.83973,12.96159 -0.92348,5.31936 -2.40111,10.53399 -4.69471,15.43723 -0.91665,1.94106 -1.42065,3.0889 -2.4612,4.96933 -1.85838,3.35833 -4.13406,6.46305 -6.42516,9.53331 -3.95181,4.94752 -8.14578,9.58687 -13.67658,12.82289 -0.87225,0.44636 -1.72578,0.93135 -2.61674,1.33908 -4.50972,2.06376 -9.38685,3.10725 -14.23818,3.99647 -6.39216,1.1516 -12.79728,2.28321 -19.26268,2.94143 -3.1622,0.22114 -6.28225,0.36196 -9.44919,0.0718 -3.3081,-0.3031 -6.5443,-1.08304 -9.78103,-1.79011 -2.80457,-0.69733 -3.94583,-0.92512 -6.63866,-1.80147 -3.66677,-1.19331 -7.15608,-2.85957 -10.63657,-4.50143 -5.10413,-2.60445 -9.87893,-5.29838 -13.91414,-9.46039 -1.7947,-1.90385 -2.30514,-2.3692 -3.96506,-4.44995 -3.02828,-3.79605 -5.53235,-7.96535 -7.71869,-12.29481 -2.36395,-5.08911 -4.59952,-10.16289 -5.44946,-15.76832 -0.3127,-2.06226 -0.24732,-4.40178 -0.25833,-6.47266 0.0398,-1.18752 0.0457,-2.37667 0.1193,-3.56258 0.35122,-5.65648 1.33706,-11.27458 3.06363,-16.67514 0.34537,-1.03394 0.66294,-2.07759 1.0361,-3.10183 1.82795,-5.01736 4.25101,-9.82092 7.27673,-14.22235 1.63626,-2.28237 2.39862,-3.45536 4.24985,-5.59028 3.2235,-3.71751 6.88391,-7.07071 11.06404,-9.68419 3.15619,-1.84821 6.33589,-3.67735 9.71931,-5.09029 3.16054,-1.31986 6.48385,-2.14109 9.86559,-2.64416 1.08426,-0.0658 2.16682,-0.1721 3.25278,-0.19756 5.11771,-0.11995 10.17454,0.71681 15.1802,1.68784 2.9054,0.59214 5.91627,1.06291 8.45548,2.69657 2.29875,1.36315 4.22653,-1.88778 1.92778,-3.25092 z" />
    <path
       style="fill:#000000;stroke:none;stroke-linecap:round;stroke-linejoin:round"
       id="path3269"
       d="m 289.6806,392.79217 c -0.18505,1.70288 0.21443,3.34363 0.72225,4.95267 0.84735,2.39758 2.01971,4.66245 3.27347,6.86867 1.20661,1.99482 2.48147,3.94547 3.7976,5.86925 1.27898,1.8467 2.63708,3.63324 4.08387,5.35121 1.74391,2.08281 3.871,3.76792 6.04066,5.37899 1.97608,1.44443 4.08938,2.68338 6.21103,3.89804 2.27119,1.27122 4.45499,2.68649 6.62597,4.11944 2.95412,1.90183 6.27235,3.09786 9.54496,4.32025 4.08179,1.60705 8.35613,2.49802 12.68046,3.12666 4.18251,0.48548 8.39335,0.64117 12.59042,0.96777 3.6158,0.36534 7.2379,0.4068 10.86413,0.23577 3.13111,-0.20281 6.26631,-0.33461 9.3965,-0.5505 2.39046,-0.17873 4.75076,-0.6023 7.10767,-1.02157 2.25697,-0.35013 4.45512,-0.95452 6.62917,-1.64113 2.28217,-0.75858 4.51395,-1.65854 6.71502,-2.62509 1.79175,-0.8257 3.51742,-1.78589 5.22972,-2.76337 1.59457,-0.84128 3.12987,-1.78741 4.67093,-2.72134 1.99163,-1.21844 4.02664,-2.36225 6.01114,-3.59238 2.37278,-1.55555 4.65207,-3.24834 6.89387,-4.98564 1.9727,-1.52715 3.75667,-3.27405 5.48074,-5.07156 0.65693,-0.69145 1.27593,-1.42701 1.76082,-2.25078 -1.38702,1.05492 -0.68045,0.89967 -1.9862,0.87474 2.53854,0.83561 3.72027,-2.75443 1.18173,-3.59004 v 0 c -1.63961,-0.15799 -0.78456,-0.30788 -2.46949,0.82691 -0.30269,0.57523 -0.79787,1.03738 -1.21511,1.52355 -1.59505,1.66453 -3.24255,3.28574 -5.06807,4.70005 -2.1376,1.65754 -4.31121,3.27196 -6.57054,4.76096 -1.97262,1.22447 -3.99847,2.35829 -5.97775,3.57191 -1.51304,0.91695 -3.02017,1.84612 -4.58613,2.67143 -1.59764,0.91243 -3.20692,1.81023 -4.87655,2.58554 -2.07588,0.91344 -4.18168,1.7618 -6.33336,2.48136 -2.01741,0.6384 -4.05622,1.20258 -6.15188,1.52377 -2.22406,0.39564 -4.45061,0.80011 -6.70607,0.97213 -3.10316,0.21449 -6.21141,0.3438 -9.31545,0.54578 -3.46883,0.16593 -6.93281,0.12325 -10.39165,-0.22864 -4.11392,-0.32006 -8.24076,-0.47676 -12.34149,-0.94007 -4.05886,-0.58639 -8.07062,-1.41428 -11.90052,-2.92698 -3.00582,-1.1219 -6.06271,-2.20257 -8.78504,-3.93388 -2.23788,-1.477 -4.48993,-2.93425 -6.83058,-4.24534 -1.99243,-1.13991 -3.97884,-2.29986 -5.8364,-3.65309 -1.93621,-1.43525 -3.84575,-2.92397 -5.40358,-4.78047 -1.36775,-1.61882 -2.64469,-3.30777 -3.85364,-5.04856 -1.25783,-1.83834 -2.47631,-3.70204 -3.633,-5.60612 -1.12764,-1.97341 -2.17773,-4.00162 -2.95517,-6.14173 -0.37169,-1.16133 -0.70652,-2.32878 -0.55286,-3.56395 0.17298,-2.66692 -3.59862,-2.91155 -3.7716,-0.24462 z" />
    <path
       style="fill:#000000;stroke:none;stroke-linecap:round;stroke-linejoin:round"
       id="path3271"
       d="m 294.60496,392.31561 c 1.77182,-0.31442 3.55634,-0.55557 5.34384,-0.76086 1.05129,-0.0909 2.09709,-0.19272 3.13746,-0.3695 2.6331,-0.45738 1.98626,-4.18115 -0.64684,-3.72376 v 0 c -0.96768,0.17313 -1.94506,0.24129 -2.92279,0.33852 -1.8483,0.21318 -3.6937,0.4615 -5.52596,0.78633 -2.637,0.43437 -2.02271,4.16364 0.61429,3.72927 z" />
    <path
       style="fill:#000000;stroke:none;stroke-linecap:round;stroke-linejoin:round"
       id="path3273"
       d="m 314.6825,390.8872 c 2.39921,-0.53794 4.85666,-0.77151 7.30209,-0.99006 1.27693,-0.10991 2.5558,-0.18642 3.83712,-0.21059 2.67202,-0.052 2.5985,-3.83081 -0.0735,-3.77881 v 0 c -1.36926,0.0274 -2.73612,0.10608 -4.10067,0.22493 -2.62553,0.23552 -5.26265,0.49273 -7.8373,1.07704 -2.60038,0.61681 -1.72809,4.2943 0.87229,3.67749 z" />
    <path
       style="fill:#000000;stroke:none;stroke-linecap:round;stroke-linejoin:round"
       id="path3275"
       d="m 342.51635,391.08306 c 2.6631,0.65029 5.33527,1.25268 8.02792,1.76804 1.30073,0.26268 2.61754,0.3998 3.93683,0.52154 2.66157,0.24173 3.00344,-3.5223 0.34186,-3.76404 v 0 c -1.19626,-0.10666 -2.38963,-0.23173 -3.5688,-0.46976 -2.70005,-0.51587 -5.37658,-1.13048 -8.04914,-1.77204 -2.6278,-0.48696 -3.31646,3.2293 -0.68867,3.71626 z" />
    <path
       style="fill:#000000;stroke:none;stroke-linecap:round;stroke-linejoin:round"
       id="path3277"
       d="m 369.52617,395.39027 c 3.06405,0.44917 6.15515,0.69552 9.24025,0.95276 1.57759,0.12263 0.78851,0.0864 2.36722,0.1089 2.67238,0.0285 2.71264,-3.75084 0.0403,-3.77931 v 0 c -1.3191,-0.008 -0.62103,0.0183 -2.0935,-0.096 -2.99265,-0.24942 -5.99125,-0.48716 -8.9639,-0.91944 -2.63973,-0.41742 -3.23005,3.31572 -0.59033,3.73314 z" />
    <path
       style="display:inline;fill:#000000;stroke:none;stroke-linecap:round;stroke-linejoin:round"
       id="path3279"
       d="m 393.3197,399.50881 c 2.64089,0.65981 5.18732,1.62723 7.65508,2.76701 1.29726,0.71602 2.68738,1.17847 4.0943,1.61708 2.5555,0.7822 3.6617,-2.83182 1.1062,-3.61402 v 0 c -1.25138,-0.37396 -2.47341,-0.79764 -3.62116,-1.43679 -2.6193,-1.20029 -5.31322,-2.24306 -8.11328,-2.94269 -2.55224,-0.79277 -3.67338,2.81665 -1.12114,3.60941 z" />
    <path
       style="fill:#000000;stroke:none;stroke-linecap:round;stroke-linejoin:round"
       id="path3281"
       d="m 413.4827,407.74719 c 1.51426,1.36576 3.24102,2.47191 4.91018,3.63612 0.7459,0.49988 1.35966,1.15519 2.05319,1.71915 2.08705,1.66933 4.44782,-1.28221 2.36077,-2.95153 v 0 c -0.7703,-0.59705 -1.41235,-1.35402 -2.25183,-1.86763 -1.52345,-1.06252 -3.1026,-2.06862 -4.49567,-3.3012 -1.95521,-1.82197 -4.53185,0.94312 -2.57664,2.76509 z" />
    <path
       style="fill:#000000;stroke:none;stroke-linecap:round;stroke-linejoin:round"
       id="path3283"
       d="m 410.26984,353.4106 c -1.01791,-2.56237 -1.7931,-5.213 -2.57171,-7.8553 -1.40169,-4.75072 -2.45747,-9.58594 -3.23696,-14.47443 -0.9427,-5.67887 -1.20126,-11.43109 -1.11125,-17.17755 0.36745,-6.33454 1.57703,-12.58961 3.25727,-18.69793 1.01147,-3.82745 2.83998,-7.33079 5.16902,-10.50844 2.03565,-2.55188 4.57933,-4.53498 7.45661,-6.03793 1.68787,-0.73213 3.3963,-1.51089 5.21781,-1.849 1.09707,-0.20363 1.77612,-0.21973 2.89927,-0.30117 3.66683,-0.0621 7.26692,0.59603 10.75127,1.68899 2.14163,0.73333 4.21874,1.7591 6.00829,3.1614 0.93353,0.73152 1.44431,1.30538 2.26987,2.14601 1.98479,2.11323 3.48389,4.5828 4.78218,7.15735 1.37157,2.6905 2.19044,5.59745 2.7908,8.54305 0.62022,2.86271 0.59201,5.48304 0.24256,8.36606 -0.34429,2.92549 -1.51792,5.62664 -2.77385,8.25863 -1.01729,2.27577 -2.44482,4.29025 -3.96955,6.24491 -1.6126,2.0648 -3.48599,3.8843 -5.44651,5.61222 -1.61308,1.50839 -3.42476,2.76951 -5.2123,4.05644 -1.88069,1.29117 -3.61885,2.76481 -5.34605,4.24991 -1.4748,1.28725 -3.0247,2.48378 -4.55007,3.70942 -1.56692,1.28407 -3.15956,2.53585 -4.86011,3.63875 -1.2978,0.78349 -2.58625,1.57552 -3.80114,2.48336 -1.14661,0.85995 -2.22397,1.80512 -3.27633,2.77647 -0.84577,0.73809 -1.74168,1.4173 -2.65115,2.0745 -0.97968,0.73424 -1.95055,1.48208 -2.86683,2.29456 -0.60218,0.58124 -1.16549,1.20138 -1.71861,1.82899 -1.15632,1.38312 -0.73963,0.55336 2.85386,1.29995 -0.44386,-2.63541 -4.1709,-2.0077 -3.72704,0.62771 v 0 c 3.63308,1.02684 2.66129,1.8161 3.71266,0.56676 0.44997,-0.5145 0.91399,-1.01748 1.39512,-1.50301 0.81479,-0.73285 1.6949,-1.38933 2.56622,-2.05278 1.03033,-0.74618 2.04585,-1.51661 2.9995,-2.35961 0.95793,-0.88449 1.93683,-1.74718 2.98073,-2.53023 1.14392,-0.86237 2.37511,-1.58929 3.59455,-2.33888 1.80286,-1.17672 3.50483,-2.49207 5.1662,-3.8605 1.55772,-1.25216 3.14063,-2.47439 4.64656,-3.78964 1.64488,-1.41432 3.29719,-2.82126 5.09024,-4.04845 1.88882,-1.35988 3.79834,-2.69868 5.50483,-4.28989 2.13376,-1.88527 4.17146,-3.87262 5.92706,-6.12309 1.69079,-2.17234 3.26495,-4.42098 4.4008,-6.94345 1.42724,-3.00513 2.72863,-6.09723 3.11395,-9.43382 0.39223,-3.3134 0.40788,-6.29041 -0.29312,-9.57599 -0.67716,-3.27209 -1.59222,-6.50034 -3.12078,-9.48913 -1.48332,-2.92119 -3.19906,-5.71953 -5.46736,-8.10853 -1.09893,-1.1042 -1.55176,-1.62799 -2.80911,-2.59801 -2.10262,-1.62213 -4.53114,-2.807 -7.03431,-3.66066 -3.96122,-1.22121 -7.99318,-1.96012 -12.15735,-1.84859 -1.41721,0.11046 -2.11876,0.12287 -3.51363,0.39886 -2.12161,0.41979 -4.12314,1.29757 -6.08477,2.17837 -3.37362,1.79909 -6.37666,4.12326 -8.74732,7.15628 -2.6025,3.60045 -4.61107,7.41065 -5.75738,11.7314 -1.75792,6.41716 -3.02856,12.9862 -3.39165,19.64139 -0.0867,5.96523 0.17729,11.93617 1.1582,17.83113 0.80871,5.04723 1.89437,10.04118 3.34376,14.94636 0.82853,2.81047 1.65335,5.63112 2.75561,8.34926 1.10484,2.43346 4.54628,0.87098 3.44144,-1.56248 z" />
    <circle
       id="path3285"
       style="fill:#000000;stroke:#000000"
       cx="408.70935"
       cy="356.02005"
       r="0.059521411" />
    <circle
       id="path3287"
       style="fill:#000000;stroke:#000000"
       cx="408.70935"
       cy="356.13354"
       r="0.059521411" />
    <path
       style="fill:#000000;stroke:none;stroke-linecap:round;stroke-linejoin:round"
       id="path3291"
       d="m 409.73064,357.26491 c 3.92676,-0.77115 7.77529,-1.89052 11.60228,-3.04838 4.67682,-1.44411 9.26559,-3.15226 13.83431,-4.90333 5.15963,-2.21127 10.51483,-3.82939 15.93503,-5.25214 5.46259,-1.41754 10.99635,-2.46306 16.60393,-3.07535 3.52833,-0.4424 6.64677,-0.38142 10.08601,0.4923 2.49215,0.7422 4.61165,2.22674 6.57625,3.88304 1.32881,1.17497 1.82155,2.10593 2.29752,3.76672 0.60334,2.0619 1.02398,4.17099 1.28608,6.30186 0.3098,1.92035 -0.30381,3.72485 -0.99542,5.48776 -0.864,2.21471 -2.23946,4.07087 -3.82956,5.80568 -0.97783,1.10232 -2.15281,1.83602 -3.46785,2.4488 -1.5083,0.7503 -3.11527,1.14983 -4.76357,1.43665 -1.82767,0.32394 -3.68014,0.44543 -5.53228,0.51117 -2.74635,0.11748 -5.4881,-0.1582 -8.18894,-0.637 -2.79819,-0.59944 -5.51269,-1.51802 -8.23431,-2.38917 -2.21285,-0.77606 -4.38386,-1.66388 -6.5606,-2.5343 -1.9651,-0.78459 -3.94861,-1.52601 -5.98912,-2.08986 -1.65217,-0.48158 -3.29878,-0.97432 -4.92086,-1.5497 -1.84212,-0.7281 -3.70736,-1.39595 -5.55556,-2.10849 -2.03689,-0.8776 -4.10705,-1.66158 -6.21087,-2.36241 -1.87191,-0.61004 -3.72692,-1.26771 -5.57149,-1.95533 -1.26167,-0.42125 -2.50108,-0.90327 -3.75142,-1.35617 -0.69226,-0.26726 -1.40594,-0.46293 -2.14196,-0.55555 0.59462,0.11558 -1.22279,-0.1901 -0.57138,-0.0295 0.21849,0.0539 0.51578,-0.0428 0.66298,0.12738 0.49151,0.56839 0.75509,1.29939 1.13264,1.94908 0.42932,-2.63782 -3.30112,-3.24497 -3.73044,-0.60715 v 0 c 0.86351,1.66677 0.54394,2.26283 2.06993,2.31446 0.4483,0.0366 0.87078,0.21178 1.29215,0.35527 1.23923,0.44796 2.46701,0.92674 3.71732,1.34364 1.88656,0.70325 3.78385,1.37577 5.69823,2.00003 2.04888,0.68112 4.06171,1.45022 6.0456,2.3031 1.8805,0.72395 3.77714,1.40537 5.65186,2.1441 1.70874,0.60495 3.44222,1.1268 5.18287,1.63196 1.90582,0.51884 3.75076,1.22946 5.58622,1.9545 2.25931,0.90343 4.51272,1.82517 6.81172,2.62457 2.88496,0.92342 5.76361,1.89436 8.73396,2.51231 2.96244,0.51409 5.9658,0.82376 8.97688,0.69133 2.02604,-0.0733 4.05206,-0.21076 6.05113,-0.5658 1.97524,-0.35015 3.90469,-0.84627 5.71475,-1.73751 1.75816,-0.82959 3.33969,-1.86023 4.65264,-3.32101 1.89929,-2.08444 3.52869,-4.33898 4.56301,-6.98813 0.90393,-2.35182 1.61886,-4.77377 1.22245,-7.3205 -0.29237,-2.33462 -0.74755,-4.64684 -1.41186,-6.90599 -0.73416,-2.43595 -1.57291,-3.88683 -3.49416,-5.59304 -2.41325,-2.01399 -5.0281,-3.7859 -8.08834,-4.65359 -1.41549,-0.3488 -1.86246,-0.50118 -3.34287,-0.68506 -2.68303,-0.33327 -5.39152,-0.1756 -8.07071,0.10248 -5.79228,0.63588 -11.51022,1.71042 -17.1527,3.17688 -5.55257,1.45926 -11.04011,3.11712 -16.32759,5.37851 -4.48386,1.71871 -8.98696,3.39656 -13.5766,4.81506 -3.66171,1.10895 -7.34344,2.17949 -11.09761,2.93268 -2.63973,0.41743 -2.04941,4.15057 0.59032,3.73314 z" />
    <path
       style="fill:#99c1f1;stroke:none;stroke-width:0.668816;stroke-linecap:round;stroke-linejoin:round"
       d="m 342.64526,340.53692 c -17.07794,-0.13527 -31.84588,11.86693 -40.77294,25.56784 -4.10721,6.70702 -7.17506,14.21848 -8.74947,21.90371 1.37183,2.36833 5.04975,0.2257 7.29166,0.44936 0.99171,-0.48301 4.59422,-0.35459 3.36237,1.42907 -3.1961,2.00079 -9.03525,-0.27574 -10.70105,3.87312 0.30972,6.82867 5.6686,12.16203 9.18056,17.6498 5.82404,8.2093 15.53075,12.27892 23.99652,17.14769 15.72637,7.60318 33.77808,6.01912 50.69653,5.30705 14.92341,-0.94473 27.69144,-9.82448 39.52419,-18.16294 1.98916,-1.07721 4.25781,-3.92587 1.33894,-5.45372 -1.05147,-1.26572 -5.54914,-2.98167 -3.72029,-4.89202 3.44231,0.0736 5.69455,5.11506 9.10478,3.82217 1.9799,-3.96252 0.69156,-8.92694 1.16193,-13.24176 0.70853,-7.80295 -1.52776,-15.33909 -4.79731,-22.33348 -3.65171,-9.18407 -9.72064,-17.48845 -18.38642,-22.51103 -9.37424,-6.40656 -20.99825,-9.92789 -32.32862,-9.03304 -1.4824,0.52847 -0.4582,3.53927 -2.77324,2.59297 -7.4122,-2.98084 -15.44265,-4.16383 -23.42814,-4.11479 z m -17.34218,46.20707 c 1.79394,-0.5145 2.44294,2.11287 0.3749,2.0391 -4.07914,0.46705 -8.96727,1.47429 -12.63043,0.59175 -0.35618,-2.6185 3.7618,-1.39154 5.22513,-2.14491 2.37092,-0.25826 4.66077,-0.49394 7.0304,-0.48594 z m 16.87584,1.47871 c 4.58688,0.68458 9.40831,1.20258 13.53829,2.9326 -0.068,2.30972 -3.9806,0.8532 -5.37404,0.9575 -2.68834,-0.87669 -6.43947,-0.63059 -8.56397,-2.53418 0.0328,-0.3671 -0.15902,-1.43907 0.39972,-1.35592 z m 30.39454,4.84891 c 3.19342,0.39404 7.27563,-0.43815 9.97476,1.33764 -1.56787,2.57556 -5.58517,0.73423 -8.01092,0.89901 -1.78423,-0.49968 -4.47812,-0.0527 -5.948,-1.27392 -0.23248,-1.94986 2.99783,-0.5348 3.98416,-0.96273 z m 21.07423,3.66935 c 4.41153,1.10416 9.04822,2.4331 12.88254,4.84499 0.15476,3.10483 -3.96305,0.4474 -5.48769,0.11887 -2.50119,-1.61702 -6.5007,-1.59983 -8.36673,-3.93582 -0.12251,-0.56862 0.39619,-1.12 0.97188,-1.02804 z"
       id="path3801" />
    <path
       style="fill:#99c1f1;stroke:none;stroke-width:0.668816;stroke-linecap:round;stroke-linejoin:round"
       d="m 292.57291,403.61069 c -2.25213,1.92827 -0.24734,5.76698 0.008,8.2792 3.94283,12.34358 10.36532,24.6537 20.76202,32.73801 13.77378,9.77635 30.91369,15.60919 47.92092,13.76842 12.16174,-1.15906 24.90045,-2.52926 35.79861,-8.44402 10.74728,-7.83527 19.48771,-18.94368 23.88795,-31.54798 -0.0923,-3.28588 -3.62314,-0.20911 -4.94165,0.74458 -13.10999,9.47279 -28.18296,17.67158 -44.78473,17.71504 -15.01474,0.49166 -30.79968,0.40174 -44.92671,-5.58884 -11.56353,-5.71772 -23.55198,-12.48925 -30.08495,-24.12962 -1.08371,-1.085 -1.76742,-3.66132 -3.6393,-3.53479 z"
       id="path3803" />
  </g>
</svg>
