<?xml version="1.0" encoding="UTF-8" standalone="no"?>
<!-- Created with Inkscape (http://www.inkscape.org/) -->

<svg
   width="171.07523"
   height="106.45422"
   viewBox="0 0 171.07523 106.45422"
   version="1.1"
   id="SVGRoot"
   sodipodi:docname="YTM26 figures.svg"
   inkscape:version="1.2.2 (732a01da63, 2022-12-09)"
   inkscape:export-filename="torus-cw.svg"
   inkscape:export-xdpi="96"
   inkscape:export-ydpi="96"
   xmlns:inkscape="http://www.inkscape.org/namespaces/inkscape"
   xmlns:sodipodi="http://sodipodi.sourceforge.net/DTD/sodipodi-0.dtd"
   xmlns="http://www.w3.org/2000/svg"
   xmlns:svg="http://www.w3.org/2000/svg">
  <sodipodi:namedview
     id="namedview170"
     pagecolor="#ffffff"
     bordercolor="#111111"
     borderopacity="1"
     inkscape:showpageshadow="0"
     inkscape:pageopacity="0"
     inkscape:pagecheckerboard="1"
     inkscape:deskcolor="#d1d1d1"
     inkscape:document-units="px"
     showgrid="false"
     inkscape:zoom="2.9903604"
     inkscape:cx="515.1553"
     inkscape:cy="367.17982"
     inkscape:window-width="1718"
     inkscape:window-height="1401"
     inkscape:window-x="1706"
     inkscape:window-y="0"
     inkscape:window-maximized="0"
     inkscape:current-layer="layer14" />
  <defs
     id="defs165">
    <clipPath
       clipPathUnits="userSpaceOnUse"
       id="clipPath7539-2">
      <path
         id="path7541-6"
         style="fill:#ff0000;fill-opacity:1;fill-rule:nonzero;stroke:none"
         d="m 93.138672,300.81055 v 121.95117 h 77.878908 c -1.90056,-1.53198 -3.78558,-3.08418 -5.64649,-4.66406 -1.14414,-0.99689 -2.27857,-2.00449 -3.39062,-3.03711 -3.56184,-3.30744 -2.07682,-6.72133 0.88672,-6.67969 1.15964,0.0163 2.5461,0.56128 3.94531,1.84961 0.99976,0.92055 2.02102,1.82307 3.04688,2.7168 0.70407,0.59695 1.42665,1.17176 2.13671,1.76171 -0.0263,-0.22891 -0.11444,-0.51916 -0.16992,-0.77734 -0.92551,-1.0862 -0.93214,-1.57585 -0.42969,-1.75391 -0.49417,-1.71166 -0.96659,-3.32663 -0.0684,-3.28125 0.31221,0.0158 0.78861,0.22978 1.48633,0.70704 0.28541,0.19522 0.58088,0.37835 0.85743,0.58593 0.15429,0.11583 0.97207,0.84826 1.0957,0.95703 0.50583,0.44503 1.01347,0.88773 1.52148,1.33008 1.45989,-0.003 2.34727,-0.49042 1.09766,-2.53906 -0.0134,-0.022 -0.0603,-0.081 -0.0391,-0.0664 0.0589,0.0405 0.10365,0.0981 0.15625,0.14649 0.10881,0.10026 0.21794,0.19794 0.32617,0.29883 0.5565,0.51879 1.10137,1.04933 1.64258,1.58398 1.09803,1.11352 2.15917,2.26341 3.22851,3.4043 0.74303,0.7805 1.46893,1.57915 2.2461,2.32617 0.45354,0.44035 0.23661,0.2344 0.64843,0.61914 1.46381,1.36751 2.07696,2.76705 2.09571,3.94141 0.0769,0.0605 0.15358,0.12115 0.23047,0.18164 0.16343,0.1286 0.31724,0.25813 0.46289,0.38867 h 26.70507 V 300.81055 Z" />
    </clipPath>
    <clipPath
       clipPathUnits="userSpaceOnUse"
       id="clipPath7701">
      <path
         id="path7703"
         style="fill:#ff0000;fill-opacity:1;fill-rule:nonzero;stroke:none"
         d="m 485.69336,218.52344 v 18.49023 c 0.42829,-0.0916 1.20097,-0.12787 2.46484,-0.12695 0.60952,4.4e-4 1.32863,0.009 2.17383,0.0234 2.49164,0.043 4.5391,1.31506 6.54688,2.63476 1.19526,0.76585 2.23607,1.73669 3.37695,2.57422 0.55313,0.41846 1.09994,0.84265 1.66406,1.24609 11.00139,7.86782 3.05265,18.98118 -7.94726,11.11133 -0.64822,-0.46377 -1.28046,-0.9474 -1.91602,-1.42773 -0.9086,-0.68806 -1.77506,-1.4301 -2.69922,-2.09766 -0.15223,-0.1008 -0.30188,-0.20343 -0.45508,-0.30273 -0.16438,-0.10657 -0.33411,-0.20427 -0.49609,-0.31446 -0.0279,-0.019 -0.10607,-0.072 -0.0723,-0.0723 0.29929,-0.002 1.87385,0.63432 1.99805,0.31055 3.02667,-7.89049 -2.98354,-11.333 -4.63867,-12.75782 v 102.66024 h 121.9512 V 218.52344 Z" />
    </clipPath>
    <clipPath
       clipPathUnits="userSpaceOnUse"
       id="clipPath7713">
      <path
         id="path7715"
         style="fill:#ff0000;fill-opacity:1;fill-rule:nonzero;stroke:none"
         d="m 151.17678,311.93604 v 121.95117 h 121.95117 v -17.27344 c -2.31779,2.00929 -6.595,2.20272 -11.42773,-1.34961 -0.76802,-0.56453 -1.53369,-1.13108 -2.32031,-1.66992 -1.92322,-1.40157 -3.84504,-2.80575 -5.71875,-4.27343 -0.83427,-0.64229 -1.677,-1.27297 -2.5254,-1.89649 -0.14798,-0.10876 -0.43411,-0.13533 -0.44921,-0.31836 -0.0404,-0.48946 1.89119,1.85295 1.38476,0.50391 -3.56507,-9.49683 -7.04427,-14.86919 -3.2168,-14.96289 1.27583,-0.0312 3.36234,0.52425 6.5293,1.70898 0.49903,0.18668 1.01685,0.32986 1.49805,0.5586 1.11237,0.52876 2.10726,1.3333 3.0918,2.06054 1.46009,1.07855 0.40148,0.27929 2.00781,1.50977 1.78288,1.39919 3.61402,2.73383 5.44531,4.06836 0.80165,0.54811 1.58074,1.12454 2.36328,1.69922 1.43013,1.05024 2.52501,2.15174 3.33789,3.25586 v -95.57227 h -79.72656 c 1.15458,0.84921 2.25914,1.76337 3.33594,2.70898 1.36388,1.20408 2.61387,2.52714 3.87695,3.83399 0.51872,0.53604 0.26584,0.27615 0.75195,0.77734 3.32927,3.43258 -0.13753,6.79587 -3.46679,3.36328 -0.49066,-0.50588 -0.23777,-0.24571 -0.75977,-0.78515 -1.17231,-1.21292 -2.328,-2.44266 -3.5918,-3.5625 -0.51555,-0.45406 -0.90738,-0.80892 -1.43945,-1.23828 -0.55562,-0.44833 -1.13732,-0.86375 -1.68945,-1.31641 -1.59416,-1.30701 -2.06647,-2.76552 -1.77735,-3.78125 z m 32.80664,0.91992 c 0.22158,5e-5 0.53551,0.0658 0.95899,0.21289 0.21534,0.0748 0.43401,0.13711 0.64453,0.22461 0.30549,0.1269 0.66525,0.39557 0.91211,0.58008 0.58161,0.4347 1.1042,0.94203 1.63086,1.43945 1.6383,1.66567 3.14038,3.45803 4.68554,5.20899 0.78516,0.8747 0.40586,0.45632 1.13477,1.25781 3.21733,3.53768 -0.35734,6.7881 -3.57422,3.25 -0.7591,-0.83491 -0.36451,-0.39771 -1.18359,-1.31055 -1.45054,-1.64382 -2.86258,-3.32564 -4.38672,-4.90234 -0.40225,-0.38341 -0.51405,-0.49981 -0.91016,-0.83789 -0.397,-0.33885 -0.46978,-0.3387 0.0996,-0.17188 4.15881,1.21839 -2.15397,-4.95171 -0.0117,-4.95117 z" />
    </clipPath>
  </defs>
  <g
     inkscape:label="Unlink"
     id="layer1"
     style="display:none"
     inkscape:export-filename="layer1.png"
     inkscape:export-xdpi="96"
     inkscape:export-ydpi="96"
     inkscape:groupmode="layer"
     transform="translate(-444.59738,-323.78461)">
    <path
       id="path234-3-6"
       style="fill:none;stroke:#62a0ea;stroke-width:5;stroke-linejoin:round"
       d="m 586.34056,318.16656 a 58.475952,58.475952 0 0 1 -58.47595,58.47595 58.475952,58.475952 0 0 1 -58.47596,-58.47595 58.475952,58.475952 0 0 1 58.47596,-58.47595 58.475952,58.475952 0 0 1 58.47595,58.47595 z"
       inkscape:export-filename="unlink-3.svg"
       inkscape:export-xdpi="96"
       inkscape:export-ydpi="96" />
    <path
       id="path234-4-7"
       style="fill:none;stroke:#62a0ea;stroke-width:5;stroke-linejoin:round"
       d="m 720.04771,319.7123 a 58.475952,58.475952 0 0 1 -58.47595,58.47595 58.475952,58.475952 0 0 1 -58.47596,-58.47595 58.475952,58.475952 0 0 1 58.47596,-58.47595 58.475952,58.475952 0 0 1 58.47595,58.47595 z" />
  </g>
  <g
     inkscape:groupmode="layer"
     id="layer2"
     inkscape:label="Link"
     style="display:none"
     transform="translate(-444.59738,-323.78461)">
    <path
       id="path234-7-4"
       style="display:inline;fill:none;stroke:#2ec27e;stroke-width:5;stroke-linejoin:round"
       d="m 605.14498,279.49946 a 58.475952,58.475952 0 0 1 -58.47595,58.47595 58.475952,58.475952 0 0 1 -58.47596,-58.47595 58.475952,58.475952 0 0 1 58.47596,-58.47595 58.475952,58.475952 0 0 1 58.47595,58.47595 z"
       inkscape:export-filename=".\unlink-2.svg"
       inkscape:export-xdpi="96"
       inkscape:export-ydpi="96"
       clip-path="url(#clipPath7701)" />
    <path
       id="path234-7-2-0"
       style="display:inline;fill:none;stroke:#2ec27e;stroke-width:5;stroke-linejoin:round"
       d="M 212.59015,361.7858 A 58.475952,58.475952 0 0 1 154.1142,420.26175 58.475952,58.475952 0 0 1 95.63824,361.7858 58.475952,58.475952 0 0 1 154.1142,303.30985 58.475952,58.475952 0 0 1 212.59015,361.7858 Z"
       inkscape:export-filename=".\link-3.svg"
       inkscape:export-xdpi="96"
       inkscape:export-ydpi="96"
       clip-path="url(#clipPath7539-2)"
       transform="translate(257.34861,-74.422368)" />
    <path
       id="path234-7-2-9-2"
       style="display:inline;fill:none;stroke:#2ec27e;stroke-width:5;stroke-linejoin:round"
       d="m 270.62978,372.91156 a 58.475952,58.475952 0 0 1 -58.47595,58.47595 58.475952,58.475952 0 0 1 -58.47596,-58.47595 58.475952,58.475952 0 0 1 58.47596,-58.47595 58.475952,58.475952 0 0 1 58.47595,58.47595 z"
       inkscape:export-filename=".\unlink-2.svg"
       inkscape:export-xdpi="96"
       inkscape:export-ydpi="96"
       clip-path="url(#clipPath7713)"
       transform="translate(257.34861,-74.422368)" />
  </g>
  <g
     inkscape:groupmode="layer"
     id="g4801-3"
     inkscape:label="W3"
     style="display:none"
     transform="translate(-440.86239,-290.12173)">
    <path
       style="display:inline;fill:#000000;stroke:#000000;stroke-width:3;stroke-linecap:round;stroke-linejoin:round;stroke-dasharray:none;stroke-opacity:1"
       d="m 382.28932,333.72543 73.5397,-73.6287"
       id="path4795-0-8-2"
       sodipodi:nodetypes="cc" />
    <path
       style="display:inline;fill:#99c1f1;stroke:#000000;stroke-width:0.709386;stroke-linecap:round;stroke-linejoin:round"
       d="m 385.14976,330.37333 c 22.97407,-22.83212 45.83088,-45.78488 68.74903,-68.67422 1.03385,-1.87322 -1.64201,-1.84502 -2.83523,-1.70696 -22.18788,0 -44.37574,0 -66.56361,0 -1.72863,0.49926 -0.73971,2.74538 -0.99989,4.07389 0.0182,21.84451 -0.0444,43.68953 0.06,65.53371 0.12979,0.78279 0.8937,1.15383 1.58966,0.77358 z"
       id="path4799-3-0-0-9" />
  </g>
  <g
     inkscape:groupmode="layer"
     id="g11414"
     inkscape:label="W3 matching"
     style="display:none"
     transform="translate(-440.86239,-290.12173)">
    <path
       style="display:inline;fill:#000000;stroke:#9a9996;stroke-width:3;stroke-linecap:round;stroke-linejoin:round;stroke-dasharray:none;stroke-opacity:1"
       d="m 382.28932,333.72543 73.5397,-73.6287"
       id="path11394"
       sodipodi:nodetypes="cc" />
    <path
       style="display:inline;fill:#c0bfbc;stroke:#9a9996;stroke-width:0.709386;stroke-linecap:round;stroke-linejoin:round"
       d="m 385.14976,330.37333 c 22.97407,-22.83212 45.83088,-45.78488 68.74903,-68.67422 1.03385,-1.87322 -1.64201,-1.84502 -2.83523,-1.70696 -22.18788,0 -44.37574,0 -66.56361,0 -1.72863,0.49926 -0.73971,2.74538 -0.99989,4.07389 0.0182,21.84451 -0.0444,43.68953 0.06,65.53371 0.12979,0.78279 0.8937,1.15383 1.58966,0.77358 z"
       id="path11408" />
  </g>
  <g
     inkscape:groupmode="layer"
     id="layer14"
     inkscape:label="sT 1"
     style="display:inline"
     transform="translate(-444.59738,-323.78461)">
    <path
       style="fill:#000000;stroke:#000000;stroke-width:2.15769;stroke-linecap:round;stroke-linejoin:round;stroke-dasharray:none;stroke-opacity:1"
       d="m 456.50572,343.75296 v 76.57246"
       id="path7177-5-4" />
    <path
       style="fill:#000000;stroke:#000000;stroke-width:3;stroke-linecap:round;stroke-linejoin:round;stroke-dasharray:none;stroke-opacity:1"
       d="M 457.68803,344.94996 H 605.71327"
       id="path7177-4-1-0" />
    <path
       style="fill:#000000;stroke:#000000;stroke-width:2.11248;stroke-linecap:round;stroke-linejoin:round;stroke-dasharray:none;stroke-opacity:1"
       d="M 456.45886,420.61781 H 529.8558"
       id="path7177-4-2-3-8" />
    <path
       style="fill:#000000;stroke:#000000;stroke-width:2.15307;stroke-linecap:round;stroke-linejoin:round;stroke-dasharray:none;stroke-opacity:1"
       d="m 531.22773,344.93195 v 76.24469"
       id="path7177-0-9-4" />
    <path
       style="fill:#f66151;stroke:#000000;stroke-width:1.41877;stroke-linecap:round;stroke-linejoin:round;stroke-dasharray:none;stroke-opacity:1"
       d="m 457.41277,345.94198 c -0.589,9.27151 -0.0836,18.74406 -0.25217,28.0928 0,14.97593 0,29.95186 0,44.92779 1.67824,2.17166 5.54255,0.45146 8.09421,1.00035 21.43923,0 42.87846,0 64.31768,0 2.17166,-1.67824 0.45146,-5.54254 1.00035,-8.09421 0,-21.75451 0,-43.50902 0,-65.26353 -1.67824,-2.17166 -5.54254,-0.45145 -8.09421,-1.00034 -21.43923,0 -42.87845,0 -64.31768,0 l -0.43117,0.19429 z"
       id="path7680-9-1" />
    <text
       xml:space="preserve"
       style="font-style:normal;font-variant:normal;font-weight:normal;font-stretch:normal;font-size:18.6667px;font-family:'Times New Roman';-inkscape-font-specification:'Times New Roman, ';display:inline;fill:#000000;stroke:none;stroke-linecap:round;stroke-linejoin:round"
       x="448.24573"
       y="338.75198"
       id="text2637-4-03-6"><tspan
         sodipodi:role="line"
         id="tspan2635-4-2-4"
         x="448.24573"
         y="338.75198"
         style="font-size:18.6667px">a</tspan></text>
    <text
       xml:space="preserve"
       style="font-style:normal;font-variant:normal;font-weight:normal;font-stretch:normal;font-size:18.6667px;font-family:'Times New Roman';-inkscape-font-specification:'Times New Roman, ';display:inline;fill:#000000;stroke:none;stroke-linecap:round;stroke-linejoin:round"
       x="525.82831"
       y="336.74557"
       id="text2637-4-1-4-6"><tspan
         sodipodi:role="line"
         id="tspan2635-4-7-5-9"
         x="525.82831"
         y="336.74557"
         style="font-size:18.6667px">b</tspan></text>
    <text
       xml:space="preserve"
       style="font-style:normal;font-variant:normal;font-weight:normal;font-stretch:normal;font-size:18.6667px;font-family:'Times New Roman';-inkscape-font-specification:'Times New Roman, ';display:inline;fill:#000000;stroke:none;stroke-linecap:round;stroke-linejoin:round"
       x="607.42389"
       y="340.08966"
       id="text2637-4-0-0-7"><tspan
         sodipodi:role="line"
         id="tspan2635-4-75-9-4"
         x="607.42389"
         y="340.08966"
         style="font-size:18.6667px">a</tspan></text>
    <text
       xml:space="preserve"
       style="font-style:normal;font-variant:normal;font-weight:normal;font-stretch:normal;font-size:18.6667px;font-family:'Times New Roman';-inkscape-font-specification:'Times New Roman, ';display:inline;fill:#000000;stroke:none;stroke-linecap:round;stroke-linejoin:round"
       x="532.80066"
       y="429.98361"
       id="text2637-4-7-7-5"><tspan
         sodipodi:role="line"
         id="tspan2635-4-6-8-6"
         x="532.80066"
         y="429.98361"
         style="font-size:18.6667px">d</tspan></text>
    <text
       xml:space="preserve"
       style="font-style:normal;font-variant:normal;font-weight:normal;font-stretch:normal;font-size:18.6667px;font-family:'Times New Roman';-inkscape-font-specification:'Times New Roman, ';display:inline;fill:#000000;stroke:none;stroke-linecap:round;stroke-linejoin:round"
       x="443.95935"
       y="427.05219"
       id="text2637-4-16-8-2"><tspan
         sodipodi:role="line"
         id="tspan2635-4-60-2-3"
         x="443.95935"
         y="427.05219"
         style="font-size:18.6667px">c</tspan></text>
    <path
       style="fill:#000000;stroke:#000000;stroke-width:1.11865;stroke-linecap:round;stroke-linejoin:round;stroke-dasharray:none;stroke-opacity:1"
       id="path8492-0"
       d="m 605.39317,347.77578 c 0.59217,0 1.18436,0 1.77655,0 2.36982,0 2.36982,-5.33375 0,-5.33375 v 0 c -0.59219,0 -1.18438,0 -1.77655,0 -2.36983,0 -2.36983,5.33375 0,5.33375 z" />
    <path
       style="display:inline;fill:#000000;stroke:#000000;stroke-width:1.11865;stroke-linecap:round;stroke-linejoin:round;stroke-dasharray:none;stroke-opacity:1"
       id="path8492-4"
       d="m 530.82022,347.77578 c 0.59217,0 1.18436,0 1.77655,0 2.36982,0 2.36982,-5.33375 0,-5.33375 v 0 c -0.59219,0 -1.18438,0 -1.77655,0 -2.36983,0 -2.36983,5.33375 0,5.33375 z" />
    <path
       style="display:inline;fill:#000000;stroke:#000000;stroke-width:1.11865;stroke-linecap:round;stroke-linejoin:round;stroke-dasharray:none;stroke-opacity:1"
       id="path8492-44"
       d="m 529.817,423.35196 c 0.59217,0 1.18436,0 1.77655,0 2.36982,0 2.36982,-5.33375 0,-5.33375 v 0 c -0.59219,0 -1.18438,0 -1.77655,0 -2.36983,0 -2.36983,5.33375 0,5.33375 z" />
    <path
       style="display:inline;fill:#000000;stroke:#000000;stroke-width:1.11865;stroke-linecap:round;stroke-linejoin:round;stroke-dasharray:none;stroke-opacity:1"
       id="path8492-89"
       d="m 455.24404,423.68636 c 0.59217,0 1.18436,0 1.77655,0 2.36982,0 2.36982,-5.33375 0,-5.33375 v 0 c -0.59219,0 -1.18438,0 -1.77655,0 -2.36983,0 -2.36983,5.33375 0,5.33375 z" />
    <path
       style="display:inline;fill:#000000;stroke:#000000;stroke-width:1.11865;stroke-linecap:round;stroke-linejoin:round;stroke-dasharray:none;stroke-opacity:1"
       id="path8492-2"
       d="m 455.91286,347.77578 c 0.59217,0 1.18436,0 1.77655,0 2.36982,0 2.36982,-5.33375 0,-5.33375 v 0 c -0.59219,0 -1.18438,0 -1.77655,0 -2.36983,0 -2.36983,5.33375 0,5.33375 z" />
  </g>
  <g
     inkscape:groupmode="layer"
     id="layer7"
     inkscape:label="S"
     style="display:none"
     transform="translate(-444.59738,-323.78461)">
    <path
       style="fill:#000000;stroke:none;stroke-linecap:round;stroke-linejoin:round"
       id="path3283"
       d="m 410.26984,353.4106 c -1.01791,-2.56237 -1.7931,-5.213 -2.57171,-7.8553 -1.40169,-4.75072 -2.45747,-9.58594 -3.23696,-14.47443 -0.9427,-5.67887 -1.20126,-11.43109 -1.11125,-17.17755 0.36745,-6.33454 1.57703,-12.58961 3.25727,-18.69793 1.01147,-3.82745 2.83998,-7.33079 5.16902,-10.50844 2.03565,-2.55188 4.57933,-4.53498 7.45661,-6.03793 1.68787,-0.73213 3.3963,-1.51089 5.21781,-1.849 1.09707,-0.20363 1.77612,-0.21973 2.89927,-0.30117 3.66683,-0.0621 7.26692,0.59603 10.75127,1.68899 2.14163,0.73333 4.21874,1.7591 6.00829,3.1614 0.93353,0.73152 1.44431,1.30538 2.26987,2.14601 1.98479,2.11323 3.48389,4.5828 4.78218,7.15735 1.37157,2.6905 2.19044,5.59745 2.7908,8.54305 0.62022,2.86271 0.59201,5.48304 0.24256,8.36606 -0.34429,2.92549 -1.51792,5.62664 -2.77385,8.25863 -1.01729,2.27577 -2.44482,4.29025 -3.96955,6.24491 -1.6126,2.0648 -3.48599,3.8843 -5.44651,5.61222 -1.61308,1.50839 -3.42476,2.76951 -5.2123,4.05644 -1.88069,1.29117 -3.61885,2.76481 -5.34605,4.24991 -1.4748,1.28725 -3.0247,2.48378 -4.55007,3.70942 -1.56692,1.28407 -3.15956,2.53585 -4.86011,3.63875 -1.2978,0.78349 -2.58625,1.57552 -3.80114,2.48336 -1.14661,0.85995 -2.22397,1.80512 -3.27633,2.77647 -0.84577,0.73809 -1.74168,1.4173 -2.65115,2.0745 -0.97968,0.73424 -1.95055,1.48208 -2.86683,2.29456 -0.60218,0.58124 -1.16549,1.20138 -1.71861,1.82899 -1.15632,1.38312 -0.73963,0.55336 2.85386,1.29995 -0.44386,-2.63541 -4.1709,-2.0077 -3.72704,0.62771 v 0 c 3.63308,1.02684 2.66129,1.8161 3.71266,0.56676 0.44997,-0.5145 0.91399,-1.01748 1.39512,-1.50301 0.81479,-0.73285 1.6949,-1.38933 2.56622,-2.05278 1.03033,-0.74618 2.04585,-1.51661 2.9995,-2.35961 0.95793,-0.88449 1.93683,-1.74718 2.98073,-2.53023 1.14392,-0.86237 2.37511,-1.58929 3.59455,-2.33888 1.80286,-1.17672 3.50483,-2.49207 5.1662,-3.8605 1.55772,-1.25216 3.14063,-2.47439 4.64656,-3.78964 1.64488,-1.41432 3.29719,-2.82126 5.09024,-4.04845 1.88882,-1.35988 3.79834,-2.69868 5.50483,-4.28989 2.13376,-1.88527 4.17146,-3.87262 5.92706,-6.12309 1.69079,-2.17234 3.26495,-4.42098 4.4008,-6.94345 1.42724,-3.00513 2.72863,-6.09723 3.11395,-9.43382 0.39223,-3.3134 0.40788,-6.29041 -0.29312,-9.57599 -0.67716,-3.27209 -1.59222,-6.50034 -3.12078,-9.48913 -1.48332,-2.92119 -3.19906,-5.71953 -5.46736,-8.10853 -1.09893,-1.1042 -1.55176,-1.62799 -2.80911,-2.59801 -2.10262,-1.62213 -4.53114,-2.807 -7.03431,-3.66066 -3.96122,-1.22121 -7.99318,-1.96012 -12.15735,-1.84859 -1.41721,0.11046 -2.11876,0.12287 -3.51363,0.39886 -2.12161,0.41979 -4.12314,1.29757 -6.08477,2.17837 -3.37362,1.79909 -6.37666,4.12326 -8.74732,7.15628 -2.6025,3.60045 -4.61107,7.41065 -5.75738,11.7314 -1.75792,6.41716 -3.02856,12.9862 -3.39165,19.64139 -0.0867,5.96523 0.17729,11.93617 1.1582,17.83113 0.80871,5.04723 1.89437,10.04118 3.34376,14.94636 0.82853,2.81047 1.65335,5.63112 2.75561,8.34926 1.10484,2.43346 4.54628,0.87098 3.44144,-1.56248 z" />
    <path
       style="fill:#000000;stroke:none;stroke-linecap:round;stroke-linejoin:round"
       id="path3291"
       d="m 409.73064,357.26491 c 3.92676,-0.77115 7.77529,-1.89052 11.60228,-3.04838 4.67682,-1.44411 9.26559,-3.15226 13.83431,-4.90333 5.15963,-2.21127 10.51483,-3.82939 15.93503,-5.25214 5.46259,-1.41754 10.99635,-2.46306 16.60393,-3.07535 3.52833,-0.4424 6.64677,-0.38142 10.08601,0.4923 2.49215,0.7422 4.61165,2.22674 6.57625,3.88304 1.32881,1.17497 1.82155,2.10593 2.29752,3.76672 0.60334,2.0619 1.02398,4.17099 1.28608,6.30186 0.3098,1.92035 -0.30381,3.72485 -0.99542,5.48776 -0.864,2.21471 -2.23946,4.07087 -3.82956,5.80568 -0.97783,1.10232 -2.15281,1.83602 -3.46785,2.4488 -1.5083,0.7503 -3.11527,1.14983 -4.76357,1.43665 -1.82767,0.32394 -3.68014,0.44543 -5.53228,0.51117 -2.74635,0.11748 -5.4881,-0.1582 -8.18894,-0.637 -2.79819,-0.59944 -5.51269,-1.51802 -8.23431,-2.38917 -2.21285,-0.77606 -4.38386,-1.66388 -6.5606,-2.5343 -1.9651,-0.78459 -3.94861,-1.52601 -5.98912,-2.08986 -1.65217,-0.48158 -3.29878,-0.97432 -4.92086,-1.5497 -1.84212,-0.7281 -3.70736,-1.39595 -5.55556,-2.10849 -2.03689,-0.8776 -4.10705,-1.66158 -6.21087,-2.36241 -1.87191,-0.61004 -3.72692,-1.26771 -5.57149,-1.95533 -1.26167,-0.42125 -2.50108,-0.90327 -3.75142,-1.35617 -0.69226,-0.26726 -1.40594,-0.46293 -2.14196,-0.55555 0.59462,0.11558 -1.22279,-0.1901 -0.57138,-0.0295 0.21849,0.0539 0.51578,-0.0428 0.66298,0.12738 0.49151,0.56839 0.75509,1.29939 1.13264,1.94908 0.42932,-2.63782 -3.30112,-3.24497 -3.73044,-0.60715 v 0 c 0.86351,1.66677 0.54394,2.26283 2.06993,2.31446 0.4483,0.0366 0.87078,0.21178 1.29215,0.35527 1.23923,0.44796 2.46701,0.92674 3.71732,1.34364 1.88656,0.70325 3.78385,1.37577 5.69823,2.00003 2.04888,0.68112 4.06171,1.45022 6.0456,2.3031 1.8805,0.72395 3.77714,1.40537 5.65186,2.1441 1.70874,0.60495 3.44222,1.1268 5.18287,1.63196 1.90582,0.51884 3.75076,1.22946 5.58622,1.9545 2.25931,0.90343 4.51272,1.82517 6.81172,2.62457 2.88496,0.92342 5.76361,1.89436 8.73396,2.51231 2.96244,0.51409 5.9658,0.82376 8.97688,0.69133 2.02604,-0.0733 4.05206,-0.21076 6.05113,-0.5658 1.97524,-0.35015 3.90469,-0.84627 5.71475,-1.73751 1.75816,-0.82959 3.33969,-1.86023 4.65264,-3.32101 1.89929,-2.08444 3.52869,-4.33898 4.56301,-6.98813 0.90393,-2.35182 1.61886,-4.77377 1.22245,-7.3205 -0.29237,-2.33462 -0.74755,-4.64684 -1.41186,-6.90599 -0.73416,-2.43595 -1.57291,-3.88683 -3.49416,-5.59304 -2.41325,-2.01399 -5.0281,-3.7859 -8.08834,-4.65359 -1.41549,-0.3488 -1.86246,-0.50118 -3.34287,-0.68506 -2.68303,-0.33327 -5.39152,-0.1756 -8.07071,0.10248 -5.79228,0.63588 -11.51022,1.71042 -17.1527,3.17688 -5.55257,1.45926 -11.04011,3.11712 -16.32759,5.37851 -4.48386,1.71871 -8.98696,3.39656 -13.5766,4.81506 -3.66171,1.10895 -7.34344,2.17949 -11.09761,2.93268 -2.63973,0.41743 -2.04941,4.15057 0.59032,3.73314 z" />
  </g>
</svg>
