<?xml version="1.0" encoding="UTF-8" standalone="no"?>
<!-- Created with Inkscape (http://www.inkscape.org/) -->

<svg
   width="195.25165"
   height="95.018188"
   viewBox="0 0 195.25165 95.018188"
   version="1.1"
   id="SVGRoot"
   sodipodi:docname="unlink filtration.svg"
   inkscape:version="1.2.2 (732a01da63, 2022-12-09)"
   inkscape:export-filename="barframe.svg"
   inkscape:export-xdpi="96"
   inkscape:export-ydpi="96"
   xmlns:inkscape="http://www.inkscape.org/namespaces/inkscape"
   xmlns:sodipodi="http://sodipodi.sourceforge.net/DTD/sodipodi-0.dtd"
   xmlns="http://www.w3.org/2000/svg"
   xmlns:svg="http://www.w3.org/2000/svg">
  <sodipodi:namedview
     id="namedview170"
     pagecolor="#ffffff"
     bordercolor="#111111"
     borderopacity="1"
     inkscape:showpageshadow="0"
     inkscape:pageopacity="0"
     inkscape:pagecheckerboard="1"
     inkscape:deskcolor="#d1d1d1"
     inkscape:document-units="px"
     showgrid="false"
     inkscape:zoom="2.1145041"
     inkscape:cx="297.70574"
     inkscape:cy="268.6209"
     inkscape:window-width="1718"
     inkscape:window-height="1401"
     inkscape:window-x="1706"
     inkscape:window-y="0"
     inkscape:window-maximized="0"
     inkscape:current-layer="layer5" />
  <defs
     id="defs165">
    <clipPath
       clipPathUnits="userSpaceOnUse"
       id="clipPath7539-2">
      <path
         id="path7541-6"
         style="fill:#ff0000;fill-opacity:1;fill-rule:nonzero;stroke:none"
         d="m 93.138672,300.81055 v 121.95117 h 77.878908 c -1.90056,-1.53198 -3.78558,-3.08418 -5.64649,-4.66406 -1.14414,-0.99689 -2.27857,-2.00449 -3.39062,-3.03711 -3.56184,-3.30744 -2.07682,-6.72133 0.88672,-6.67969 1.15964,0.0163 2.5461,0.56128 3.94531,1.84961 0.99976,0.92055 2.02102,1.82307 3.04688,2.7168 0.70407,0.59695 1.42665,1.17176 2.13671,1.76171 -0.0263,-0.22891 -0.11444,-0.51916 -0.16992,-0.77734 -0.92551,-1.0862 -0.93214,-1.57585 -0.42969,-1.75391 -0.49417,-1.71166 -0.96659,-3.32663 -0.0684,-3.28125 0.31221,0.0158 0.78861,0.22978 1.48633,0.70704 0.28541,0.19522 0.58088,0.37835 0.85743,0.58593 0.15429,0.11583 0.97207,0.84826 1.0957,0.95703 0.50583,0.44503 1.01347,0.88773 1.52148,1.33008 1.45989,-0.003 2.34727,-0.49042 1.09766,-2.53906 -0.0134,-0.022 -0.0603,-0.081 -0.0391,-0.0664 0.0589,0.0405 0.10365,0.0981 0.15625,0.14649 0.10881,0.10026 0.21794,0.19794 0.32617,0.29883 0.5565,0.51879 1.10137,1.04933 1.64258,1.58398 1.09803,1.11352 2.15917,2.26341 3.22851,3.4043 0.74303,0.7805 1.46893,1.57915 2.2461,2.32617 0.45354,0.44035 0.23661,0.2344 0.64843,0.61914 1.46381,1.36751 2.07696,2.76705 2.09571,3.94141 0.0769,0.0605 0.15358,0.12115 0.23047,0.18164 0.16343,0.1286 0.31724,0.25813 0.46289,0.38867 h 26.70507 V 300.81055 Z" />
    </clipPath>
    <clipPath
       clipPathUnits="userSpaceOnUse"
       id="clipPath7701">
      <path
         id="path7703"
         style="fill:#ff0000;fill-opacity:1;fill-rule:nonzero;stroke:none"
         d="m 485.69336,218.52344 v 18.49023 c 0.42829,-0.0916 1.20097,-0.12787 2.46484,-0.12695 0.60952,4.4e-4 1.32863,0.009 2.17383,0.0234 2.49164,0.043 4.5391,1.31506 6.54688,2.63476 1.19526,0.76585 2.23607,1.73669 3.37695,2.57422 0.55313,0.41846 1.09994,0.84265 1.66406,1.24609 11.00139,7.86782 3.05265,18.98118 -7.94726,11.11133 -0.64822,-0.46377 -1.28046,-0.9474 -1.91602,-1.42773 -0.9086,-0.68806 -1.77506,-1.4301 -2.69922,-2.09766 -0.15223,-0.1008 -0.30188,-0.20343 -0.45508,-0.30273 -0.16438,-0.10657 -0.33411,-0.20427 -0.49609,-0.31446 -0.0279,-0.019 -0.10607,-0.072 -0.0723,-0.0723 0.29929,-0.002 1.87385,0.63432 1.99805,0.31055 3.02667,-7.89049 -2.98354,-11.333 -4.63867,-12.75782 v 102.66024 h 121.9512 V 218.52344 Z" />
    </clipPath>
    <clipPath
       clipPathUnits="userSpaceOnUse"
       id="clipPath8097-3">
      <path
         id="path8099-0"
         style="fill:#ff0000;fill-opacity:1;fill-rule:nonzero;stroke:none"
         d="M 215.55469,274.03125 V 395.98242 H 337.50781 V 274.03125 H 253.8457 c 0.92531,0.63561 1.81125,1.32668 2.66797,2.05664 1.23755,1.00101 2.20339,2.26115 3.21875,3.47266 5.19289,6.19609 3.5122,11.82485 -0.52344,13.13086 -2.22172,2.76848 -7.15961,3.29436 -12.31836,-1.32422 -0.20497,-0.18354 -0.41022,-0.36724 -0.61523,-0.55078 -0.8536,-0.8225 -1.69155,-1.65962 -2.51562,-2.51172 -0.91279,-0.91012 -1.89708,-1.7418 -2.87891,-2.57617 -1.19382,-1.01807 -2.38855,-2.03921 -3.49219,-3.15625 -3.0111,-3.04776 -4.09656,-6.09908 -3.875,-8.54102 z m 37.71093,96.54297 c 7.64217,-0.0735 9.8385,8.92866 0.0293,13.88281 -2.09301,1.05708 -4.20583,2.07316 -6.28906,3.15039 -1.6407,0.80274 -3.22005,1.72078 -4.73828,2.73438 -11.24873,7.50989 -18.83753,-3.95281 -7.54102,-11.39063 1.93622,-1.27484 3.92882,-2.46217 6.01172,-3.48437 2.13695,-1.10171 4.30228,-2.14531 6.44727,-3.23047 2.26287,-1.1448 4.31652,-1.64515 6.08007,-1.66211 z" />
    </clipPath>
    <clipPath
       clipPathUnits="userSpaceOnUse"
       id="clipPath8202">
      <path
         id="path8204"
         style="fill:#ff0000;fill-opacity:1;fill-rule:nonzero;stroke:none"
         d="m 449.45898,106.25391 v 121.95312 h 32.69922 c 3.21968,-4.54279 -10.02125,1.03136 -5.63086,-3.87305 0.0933,-0.10423 0.19035,-0.20815 0.28125,-0.31445 0.0363,-0.0424 0.0456,-0.10054 0.0742,-0.14844 0.0738,-0.12341 0.15091,-0.24564 0.22461,-0.36914 0.31336,-0.52541 0.26285,-0.44436 0.55469,-0.98047 0.0867,-0.1766 0.16864,-0.35589 0.25391,-0.5332 -2.49724,1.28812 -5.74576,3.63494 -4.4629,0.0996 -1.42865,0.92194 -2.43842,1.24768 -1.75,-1.32031 0.0676,-0.25199 0.12143,-0.50809 0.20313,-0.75586 0.35316,-1.07142 0.95672,-2.18973 1.49805,-3.17774 0.62845,-1.14314 1.36323,-2.22145 2.02343,-3.3457 0.28449,-0.50122 0.58665,-0.99292 0.89063,-1.48242 1.22636,-1.97486 2.71799,-2.84352 4.00195,-2.90039 0.0766,-0.003 0.15154,-0.004 0.22657,-0.002 1.18801,0.0368 2.16601,0.78461 2.53515,1.99218 0.047,-2.6e-4 0.0944,-0.002 0.14063,0 0.74055,0.0261 1.36953,0.33973 1.84375,0.83008 0.11687,-0.014 0.2336,-0.0231 0.34765,-0.0234 2.26455,-0.006 3.89673,2.63685 1.93164,6.37891 -0.0606,0.11539 -0.12104,0.23032 -0.18164,0.3457 -0.52012,1.02757 -1.08595,2.03359 -1.57226,3.07813 -0.63603,1.37146 -1.25725,2.75026 -1.93946,4.09961 -0.45433,0.82493 -0.913,1.64939 -1.47656,2.40234 h 89.23438 v -17.93359 c -2.01919,-0.66364 -4.18208,-1.81125 -6.41602,-3.56836 -0.26321,-0.20704 -0.52781,-0.41407 -0.79102,-0.6211 -2.11339,-1.69495 -4.31187,-3.28359 -6.43945,-4.96093 -1.88042,-1.4231 -3.73335,-2.89266 -5.72656,-4.15625 -12.62101,-8.00106 -9.06279,-19.68239 0.81055,-19.54102 2.76452,0.0396 6.02441,1.00658 9.5625,3.24024 2.43711,1.53859 4.71301,3.31073 7.00976,5.04687 0.65933,0.51425 1.32584,1.0196 1.99024,1.52734 v -80.98632 z" />
    </clipPath>
    <clipPath
       clipPathUnits="userSpaceOnUse"
       id="clipPath8278">
      <path
         id="path8280"
         style="fill:#ff0000;fill-opacity:1;fill-rule:nonzero;stroke:none"
         d="M 412.84375,175.11328 V 297.06641 H 534.79492 V 228.9707 c -0.66372,0.26608 -1.37885,0.50505 -2.1582,0.70703 -1.64235,0.42565 -3.2817,0.86246 -4.93555,1.24219 -2.40781,0.58547 -4.82883,1.18518 -7.31055,1.34375 -13.49772,0.86245 13.52502,-13.58041 0,-13.66211 -0.15473,-0.001 -0.60887,0.0546 -0.46484,-0.002 0.22945,-0.0902 0.48924,-0.0629 0.73242,-0.10352 0.21803,-0.0364 0.43368,-0.0834 0.65039,-0.12695 1.06149,-0.21317 2.11028,-0.46631 3.16211,-0.72266 1.58829,-0.36339 3.16139,-0.78459 4.73828,-1.19336 1.63657,-0.42422 3.12221,-0.58839 4.44336,-0.54492 0.39767,0.0131 0.77507,0.0522 1.14258,0.10157 v -40.89649 h -78.41601 c 0.40688,0.43916 0.8148,0.87809 1.21679,1.32031 1.09789,1.23278 2.198,2.46324 3.31836,3.67579 0.1389,0.1471 0.27907,0.29427 0.41797,0.4414 9.28495,9.83473 -0.67256,19.21918 -9.94336,9.3711 l -0.52734,-0.56055 c -1.13783,-1.23993 -2.2658,-2.48747 -3.38281,-3.7461 -0.96583,-1.06698 -1.92049,-2.16107 -3.01172,-3.09961 -9.28442,-7.98533 13.97511,-1.56454 11.38476,-7.40234 z" />
    </clipPath>
  </defs>
  <g
     inkscape:label="Unlink"
     id="layer1"
     style="display:none"
     inkscape:export-filename="layer1.png"
     inkscape:export-xdpi="96"
     inkscape:export-ydpi="96"
     inkscape:groupmode="layer"
     transform="translate(-458.49445,-133.73997)">
    <path
       id="path234-9-8"
       style="fill:none;stroke:#62a0ea;stroke-width:5;stroke-linejoin:round"
       d="M 653.14895,201.98752 A 58.475952,58.475952 0 0 1 594.673,260.46347 58.475952,58.475952 0 0 1 536.19704,201.98752 58.475952,58.475952 0 0 1 594.673,143.51157 58.475952,58.475952 0 0 1 653.14895,201.98752 Z" />
  </g>
  <g
     inkscape:groupmode="layer"
     id="layer2"
     inkscape:label="Link"
     style="display:none"
     transform="translate(-458.49445,-133.73997)">
    <path
       id="path234-7-4"
       style="display:inline;fill:none;stroke:#2ec27e;stroke-width:5;stroke-linejoin:round"
       d="m 605.14498,279.49946 a 58.475952,58.475952 0 0 1 -58.47595,58.47595 58.475952,58.475952 0 0 1 -58.47596,-58.47595 58.475952,58.475952 0 0 1 58.47596,-58.47595 58.475952,58.475952 0 0 1 58.47595,58.47595 z"
       inkscape:export-filename=".\unlink-2.svg"
       inkscape:export-xdpi="96"
       inkscape:export-ydpi="96"
       clip-path="url(#clipPath7701)" />
    <path
       id="path234-7-2-0"
       style="display:inline;fill:none;stroke:#2ec27e;stroke-width:5;stroke-linejoin:round"
       d="M 212.59015,361.7858 A 58.475952,58.475952 0 0 1 154.1142,420.26175 58.475952,58.475952 0 0 1 95.63824,361.7858 58.475952,58.475952 0 0 1 154.1142,303.30985 58.475952,58.475952 0 0 1 212.59015,361.7858 Z"
       inkscape:export-filename=".\link-3.svg"
       inkscape:export-xdpi="96"
       inkscape:export-ydpi="96"
       clip-path="url(#clipPath7539-2)"
       transform="translate(257.34861,-74.422368)" />
  </g>
  <g
     inkscape:groupmode="layer"
     id="layer3"
     inkscape:label="Barromean"
     style="display:none"
     transform="translate(-458.49445,-133.73997)">
    <path
       id="path234-44-5"
       style="display:inline;fill:none;stroke:#ed333b;stroke-width:5;stroke-linejoin:round"
       d="m 568.9109,167.23029 a 58.475952,58.475952 0 0 1 -58.47595,58.47595 58.475952,58.475952 0 0 1 -58.47595,-58.47595 58.475952,58.475952 0 0 1 58.47595,-58.47595 58.475952,58.475952 0 0 1 58.47595,58.47595 z"
       inkscape:export-filename=".\unlink-2.svg"
       inkscape:export-xdpi="96"
       inkscape:export-ydpi="96"
       clip-path="url(#clipPath8202)" />
    <path
       id="path234-44-1-0"
       style="display:inline;fill:none;stroke:#ed333b;stroke-width:5;stroke-linejoin:round"
       d="m 532.29512,236.09014 a 58.475952,58.475952 0 0 1 -58.47595,58.47595 58.475952,58.475952 0 0 1 -58.47595,-58.47595 58.475952,58.475952 0 0 1 58.47595,-58.47596 58.475952,58.475952 0 0 1 58.47595,58.47596 z"
       inkscape:export-filename=".\borromean-3.svg"
       inkscape:export-xdpi="96"
       inkscape:export-ydpi="96"
       clip-path="url(#clipPath8278)" />
    <path
       id="path234-44-8-1-6"
       style="display:inline;fill:none;stroke:#ed333b;stroke-width:5;stroke-linejoin:round"
       d="m 335.00708,335.0071 a 58.475952,58.475952 0 0 1 -58.47595,58.47595 58.475952,58.475952 0 0 1 -58.47595,-58.47595 58.475952,58.475952 0 0 1 58.47595,-58.47596 58.475952,58.475952 0 0 1 58.47595,58.47596 z"
       inkscape:export-filename=".\unlink-2.svg"
       inkscape:export-xdpi="96"
       inkscape:export-ydpi="96"
       clip-path="url(#clipPath8097-3)"
       transform="translate(257.4035,-94.544918)" />
  </g>
  <g
     inkscape:groupmode="layer"
     id="layer9"
     inkscape:label="T"
     style="display:inline"
     transform="translate(-458.49445,-133.73997)">
    <path
       style="fill:#000000;stroke:none;stroke-linecap:round;stroke-linejoin:round"
       id="path3257"
       d="m 517.96508,135.96679 c -1.57885,-0.0893 -3.15922,-0.14498 -4.74018,-0.1772 -3.10257,0.0984 -6.15072,0.76716 -9.14829,1.52852 -3.61137,0.94965 -7.06966,2.36913 -10.47011,3.89299 -2.91403,1.26264 -5.58343,2.96967 -8.22343,4.71496 -4.26706,2.80033 -8.31425,5.90112 -12.08518,9.33773 -3.36914,3.19339 -6.1592,6.90662 -8.59227,10.84277 -1.84906,3.08698 -3.30544,6.38046 -4.42237,9.79574 -0.97172,3.06135 -1.39721,6.22643 -1.64737,9.41539 -0.24826,2.94536 -0.19003,5.88335 0.33786,8.79082 0.90434,3.85064 3.13674,7.1153 5.5687,10.15697 2.80158,3.3591 6.18127,6.06977 9.90551,8.32443 3.57871,1.9431 7.35987,3.48967 11.18868,4.86287 5.2615,1.69929 10.69032,2.81156 16.08,4.01743 6.58345,1.5019 13.18763,2.91072 19.82209,4.16855 5.38886,1.03176 10.81926,1.81447 16.27355,2.39808 3.95978,0.31653 7.9361,0.74739 11.91486,0.72008 2.89931,-0.0199 3.86539,-0.17817 6.83745,-0.45357 8.72774,-0.91175 17.2582,-3.02951 25.82664,-4.84062 9.09363,-1.85366 18.15793,-3.8416 27.05497,-6.49266 6.83743,-2.19263 13.43524,-5.07489 19.84214,-8.30153 4.66679,-2.28962 9.04773,-5.06675 13.08145,-8.33729 3.17674,-2.67629 5.68834,-5.75894 7.78882,-9.32541 2.15553,-3.99509 2.93032,-8.45955 3.45957,-12.91191 0.19711,-2.56515 0.21257,-5.1852 -0.28877,-7.72111 -0.25933,-1.3118 -0.50413,-1.9573 -0.9043,-3.19925 -1.14307,-2.92377 -2.94077,-5.50607 -4.95393,-7.8898 -2.26655,-2.60143 -5.0552,-4.60105 -7.96095,-6.41724 -4.42816,-2.52542 -9.21152,-4.33588 -14.00505,-6.02972 -4.12272,-1.41747 -8.2998,-2.66916 -12.5077,-3.80627 -5.14275,-1.26092 -10.31559,-2.39293 -15.49069,-3.51177 -4.59426,-0.98867 -9.19862,-1.92161 -13.82572,-2.74289 -6.58931,-1.10558 -13.24282,-1.76053 -19.90011,-2.2836 -5.74083,-0.41111 -11.49267,-0.65116 -17.24691,-0.75231 -4.23822,0.0194 -8.47119,0.33599 -12.69071,0.71511 -2.31596,0.23621 -4.62742,0.50393 -6.95141,0.64753 -1.61347,0.0878 -3.23,0.0934 -4.84541,0.0988 -0.86152,0.002 -1.72304,-0.001 -2.58456,-0.003 -0.46064,-9.7e-4 -0.1908,0.002 -0.80943,-0.014 -2.67171,-0.0662 -2.7653,3.71219 -0.0936,3.77837 v 0 c 0.70372,0.0169 0.40589,0.0142 0.89338,0.0152 0.86891,0.002 1.73783,0.005 2.60675,0.003 1.68925,-0.006 3.37964,-0.0126 5.06678,-0.106 2.35881,-0.14676 4.7055,-0.4127 7.05594,-0.65547 4.08503,-0.36754 8.18295,-0.6754 12.28598,-0.7005 5.67769,0.0993 11.35299,0.33655 17.01749,0.7413 6.53518,0.51225 13.06663,1.15468 19.53542,2.23704 4.5809,0.81276 9.13906,1.73718 13.68745,2.71569 5.11252,1.10528 10.22265,2.22396 15.30397,3.4664 4.11619,1.11083 8.20139,2.33675 12.23449,3.72127 4.53519,1.60071 9.06261,3.30557 13.26327,5.67268 2.57746,1.60433 5.06093,3.35728 7.07878,5.655 1.70533,2.00117 3.23132,4.1718 4.24209,6.61371 0.30814,0.93804 0.56035,1.61992 0.76168,2.59617 0.4539,2.20101 0.43192,4.48319 0.27234,6.71237 -0.46186,3.93641 -1.09962,7.8989 -2.96989,11.4493 -1.81579,3.1412 -4.13462,5.94695 -6.90816,8.29785 -3.81688,3.10714 -7.97896,5.72356 -12.39956,7.89582 -6.20542,3.13072 -12.59956,5.92108 -19.22093,8.05461 -8.79764,2.62517 -17.76455,4.58009 -26.75662,6.41679 -8.42655,1.7813 -16.81498,3.86817 -25.39674,4.7753 -2.70077,0.25477 -3.75396,0.41797 -6.38719,0.43846 -3.8775,0.0302 -7.75292,-0.39395 -11.612,-0.7 -5.35314,-0.57065 -10.68223,-1.34195 -15.97108,-2.35333 -6.59398,-1.24955 -13.15748,-2.65113 -19.70073,-4.14348 -5.23771,-1.17187 -10.51332,-2.25149 -15.63101,-3.88735 -3.59523,-1.28532 -7.1435,-2.73799 -10.51259,-4.54208 -3.35403,-2.00907 -6.38166,-4.44965 -8.90934,-7.45406 -2.05269,-2.54123 -3.97597,-5.26495 -4.79863,-8.47703 -0.48772,-2.58048 -0.49456,-5.19464 -0.28628,-7.81009 0.22364,-2.89171 0.59603,-5.76158 1.47326,-8.53932 1.01404,-3.13328 2.35972,-6.14813 4.04532,-8.98142 2.24073,-3.64239 4.81922,-7.0751 7.92325,-10.03516 3.62096,-3.31028 7.52171,-6.28066 11.62194,-8.97671 2.46851,-1.63279 4.95864,-3.23925 7.68502,-4.41881 3.20213,-1.43649 6.4567,-2.78051 9.85703,-3.67922 2.66796,-0.68213 5.37888,-1.28329 8.13838,-1.41228 1.53193,0.031 3.06327,0.0851 4.59316,0.17135 2.66784,0.15821 2.89157,-3.61469 0.22373,-3.7729 z" />
    <path
       style="fill:#000000;stroke:none;stroke-linecap:round;stroke-linejoin:round"
       id="path3263"
       d="m 509.63289,167.93343 c -0.55956,2.81541 -0.289,5.53614 0.27086,8.32264 0.73713,2.54492 1.75108,5.06288 3.25019,7.26441 0.85873,1.26108 1.45549,1.86939 2.44862,2.99378 4.13504,3.78695 9.44489,5.75066 14.68993,7.45636 6.45331,1.92794 13.2142,2.41587 19.9148,2.4148 5.68169,-0.1846 11.36601,-0.78552 16.8999,-2.12207 1.01895,-0.24609 2.02359,-0.54806 3.03539,-0.82209 5.83087,-1.62557 11.19009,-4.38471 16.27964,-7.60546 3.50922,-2.32792 6.73959,-5.02959 9.81673,-7.89513 0.63112,-0.58948 1.2428,-1.19736 1.83165,-1.82869 1.81787,-1.95902 -0.9526,-4.52988 -2.77047,-2.57086 v 0 c -0.52301,0.56745 -1.0767,1.10392 -1.63747,1.63413 -2.90549,2.70791 -5.95328,5.26362 -9.26409,7.46842 -4.76531,3.02673 -9.7841,5.61974 -15.24738,7.1504 -0.94417,0.25764 -1.88142,0.54214 -2.8325,0.77292 -5.27632,1.2803 -10.69646,1.85595 -16.11477,2.0389 -6.30392,0.0105 -12.66982,-0.43676 -18.74594,-2.23061 -4.60961,-1.48915 -9.29866,-3.16889 -13.02883,-6.37005 -0.76291,-0.85451 -1.38931,-1.50458 -2.04637,-2.44929 -1.2741,-1.83186 -2.12577,-3.94563 -2.77786,-6.06549 -0.47454,-2.21321 -0.70619,-4.50913 -0.27894,-6.75342 0.56824,-2.61142 -3.12487,-3.41502 -3.69309,-0.8036 z" />
    <path
       style="fill:#000000;stroke:none;stroke-linecap:round;stroke-linejoin:round"
       id="path3265"
       d="m 519.31245,185.9978 c 5.0279,-0.86678 10.06825,-1.65568 15.12836,-2.30833 4.28036,-0.48762 8.58263,-0.96824 12.89634,-1.01033 2.35322,-0.0229 3.46957,0.0871 5.79012,0.23184 4.83412,0.38586 9.5763,1.40008 14.23635,2.70596 3.14973,0.91983 6.27039,1.93732 9.35619,3.05261 0.65666,0.24997 1.3182,0.48689 1.97689,0.73139 0.15761,0.0585 0.57367,0.31794 0.46851,0.18677 -0.33983,-0.4239 -0.71582,-0.8175 -1.07373,-1.22625 0.62842,2.5976 4.30198,1.70888 3.67356,-0.88872 v 0 c -0.36841,-0.45216 -0.70428,-0.93292 -1.10524,-1.35649 -0.27714,-0.29277 -2.34808,-0.72458 -2.65578,-1.00136 -3.17364,-1.14611 -6.38252,-2.19349 -9.62215,-3.13773 -4.91733,-1.37347 -9.92109,-2.4398 -15.02173,-2.83853 -2.52578,-0.15438 -3.59652,-0.26331 -6.16633,-0.23629 -4.42767,0.0465 -8.84349,0.53693 -13.23697,1.03872 -5.10598,0.65994 -10.1926,1.4532 -15.26614,2.32871 -2.63612,0.43965 -2.01436,4.16768 0.62175,3.72803 z" />
    <path
       style="fill:#f66151;stroke:none;stroke-width:0.668816;stroke-linecap:round;stroke-linejoin:round"
       d="m 545.7092,137.19735 c -13.64871,0.44615 -27.41586,0.91918 -40.88135,3.25656 -13.95628,4.27011 -26.73867,12.99153 -35.66147,24.55808 -5.4237,8.42027 -9.13259,19.02622 -6.92067,29.06997 4.18458,12.17374 17.18661,18.19094 28.69306,21.60992 16.0741,3.84613 32.27073,7.70883 48.74786,9.30217 13.37449,1.28858 26.66805,-0.9678 39.64153,-4.03416 21.85371,-4.50193 44.8775,-9.71898 62.36394,-24.45217 7.29295,-6.52442 10.36865,-17.42177 8.26745,-26.8728 -3.69792,-11.60232 -16.1785,-16.50562 -26.67344,-20.16238 -25.04971,-7.70672 -51.28124,-12.74169 -77.57691,-12.27519 z m -34.39959,30.33707 c 1.76896,0.59635 0.61932,3.95215 1.32326,5.53993 0.92408,3.28383 1.22634,8.05545 4.60726,9.71743 16.89031,-1.77266 34.5237,-5.48514 51.13706,0.0273 4.06972,0.66172 8.19826,3.5695 12.17405,2.82429 6.00696,-2.84159 10.33074,-8.10787 15.92003,-11.49268 2.21563,-0.95951 1.05696,2.44814 -0.19594,2.81111 -7.99683,7.33771 -17.22274,13.73939 -27.99872,16.14544 -16.15542,3.85124 -34.1354,3.99526 -48.84585,-4.81476 -7.16451,-4.12311 -10.49997,-13.04887 -8.55353,-20.74504 0.14392,-0.01 0.28817,-0.0132 0.43238,-0.0131 z"
       id="path3799" />
  </g>
</svg>
