<?xml version="1.0" encoding="UTF-8" standalone="no"?>
<!-- Created with Inkscape (http://www.inkscape.org/) -->

<svg
   width="177.78445"
   height="190.45233"
   viewBox="0 0 177.78445 190.45233"
   version="1.1"
   id="SVGRoot"
   sodipodi:docname="unlink filtration.svg"
   inkscape:version="1.2.2 (732a01da63, 2022-12-09)"
   inkscape:export-filename="torus-cw-2.svg"
   inkscape:export-xdpi="96"
   inkscape:export-ydpi="96"
   xmlns:inkscape="http://www.inkscape.org/namespaces/inkscape"
   xmlns:sodipodi="http://sodipodi.sourceforge.net/DTD/sodipodi-0.dtd"
   xmlns="http://www.w3.org/2000/svg"
   xmlns:svg="http://www.w3.org/2000/svg">
  <sodipodi:namedview
     id="namedview170"
     pagecolor="#ffffff"
     bordercolor="#111111"
     borderopacity="1"
     inkscape:showpageshadow="0"
     inkscape:pageopacity="0"
     inkscape:pagecheckerboard="1"
     inkscape:deskcolor="#d1d1d1"
     inkscape:document-units="px"
     showgrid="false"
     inkscape:zoom="1.4951802"
     inkscape:cx="384.90344"
     inkscape:cy="295.61654"
     inkscape:window-width="1718"
     inkscape:window-height="1401"
     inkscape:window-x="1706"
     inkscape:window-y="0"
     inkscape:window-maximized="0"
     inkscape:current-layer="layer12" />
  <defs
     id="defs165">
    <marker
       orient="auto-start-reverse"
       refY="0"
       refX="0"
       id="three_dots"
       inkscape:stockid="three_dots"
       style="overflow:visible"
       markerWidth="4"
       markerHeight="1.0909091"
       viewBox="0 0 5.5 1.5"
       inkscape:isstock="true"
       inkscape:collect="always"
       preserveAspectRatio="xMidYMid">
      <g
         id="g1246"
         transform="scale(0.5)">
        <circle
           cx="4"
           cy="0"
           r="1"
           id="circle237"
           style="fill:context-stroke;stroke:context-stroke" />
        <circle
           cx="8"
           cy="0"
           r="1"
           id="circle239"
           style="fill:context-stroke;stroke:context-stroke" />
        <circle
           cx="12"
           cy="0"
           r="1"
           id="circle241"
           style="fill:context-stroke;stroke:context-stroke" />
      </g>
    </marker>
    <marker
       style="overflow:visible"
       id="Dot"
       refX="0"
       refY="0"
       orient="auto"
       inkscape:stockid="Dot"
       markerWidth="2"
       markerHeight="2"
       viewBox="0 0 5.6666667 5.6666667"
       inkscape:isstock="true"
       inkscape:collect="always"
       preserveAspectRatio="xMidYMid">
      <path
         transform="scale(0.5)"
         style="fill:context-stroke;fill-rule:evenodd;stroke:context-stroke;stroke-width:1pt"
         d="M 5,0 C 5,2.76 2.76,5 0,5 -2.76,5 -5,2.76 -5,0 c 0,-2.76 2.3,-5 5,-5 2.76,0 5,2.24 5,5 z"
         id="Dot1"
         sodipodi:nodetypes="sssss" />
    </marker>
    <clipPath
       clipPathUnits="userSpaceOnUse"
       id="clipPath8097">
      <path
         id="path8099"
         style="fill:#ff0000;fill-opacity:1;fill-rule:nonzero;stroke:none"
         d="M 215.55469,274.03125 V 395.98242 H 337.50781 V 274.03125 H 253.8457 c 0.92531,0.63561 1.81125,1.32668 2.66797,2.05664 1.23755,1.00101 2.20339,2.26115 3.21875,3.47266 5.19289,6.19609 3.5122,11.82485 -0.52344,13.13086 -2.22172,2.76848 -7.15961,3.29436 -12.31836,-1.32422 -0.20497,-0.18354 -0.41022,-0.36724 -0.61523,-0.55078 -0.8536,-0.8225 -1.69155,-1.65962 -2.51562,-2.51172 -0.91279,-0.91012 -1.89708,-1.7418 -2.87891,-2.57617 -1.19382,-1.01807 -2.38855,-2.03921 -3.49219,-3.15625 -3.0111,-3.04776 -4.09656,-6.09908 -3.875,-8.54102 z m 37.71093,96.54297 c 7.64217,-0.0735 9.8385,8.92866 0.0293,13.88281 -2.09301,1.05708 -4.20583,2.07316 -6.28906,3.15039 -1.6407,0.80274 -3.22005,1.72078 -4.73828,2.73438 -11.24873,7.50989 -18.83753,-3.95281 -7.54102,-11.39063 1.93622,-1.27484 3.92882,-2.46217 6.01172,-3.48437 2.13695,-1.10171 4.30228,-2.14531 6.44727,-3.23047 2.26287,-1.1448 4.31652,-1.64515 6.08007,-1.66211 z" />
    </clipPath>
  </defs>
  <g
     inkscape:label="Unlink"
     id="layer1"
     style="display:none"
     inkscape:export-filename="layer1.png"
     inkscape:export-xdpi="96"
     inkscape:export-ydpi="96"
     inkscape:groupmode="layer"
     transform="translate(-64.387054,-94.228142)">
    <path
       id="path234"
       style="fill:none;stroke:#62a0ea;stroke-width:5;stroke-linejoin:round"
       d="m 210.95064,160.12573 a 58.475952,58.475952 0 0 1 -58.47595,58.47595 58.475952,58.475952 0 0 1 -58.475956,-58.47595 58.475952,58.475952 0 0 1 58.475956,-58.47595 58.475952,58.475952 0 0 1 58.47595,58.47595 z"
       inkscape:export-filename=".\unlink-2.svg"
       inkscape:export-xdpi="96"
       inkscape:export-ydpi="96" />
  </g>
  <g
     inkscape:groupmode="layer"
     id="layer2"
     inkscape:label="Link"
     style="display:none"
     transform="translate(-64.387054,-94.228142)">
    <path
       id="path234-7"
       style="display:inline;fill:none;stroke:#2ec27e;stroke-width:5;stroke-linejoin:round"
       d="m 213.68315,180.89289 a 58.475952,58.475952 0 0 1 -58.47595,58.47595 58.475952,58.475952 0 0 1 -58.47596,-58.47595 58.475952,58.475952 0 0 1 58.47596,-58.47595 58.475952,58.475952 0 0 1 58.47595,58.47595 z"
       inkscape:export-filename=".\link-1.svg"
       inkscape:export-xdpi="96"
       inkscape:export-ydpi="96" />
  </g>
  <g
     inkscape:groupmode="layer"
     id="layer3"
     inkscape:label="Barromean"
     style="display:none"
     transform="translate(-64.387054,-94.228142)">
    <path
       id="path234-44"
       style="display:inline;fill:none;stroke:#ed333b;stroke-width:5;stroke-linejoin:round"
       d="m 259.04301,134.98654 a 58.475952,58.475952 0 0 1 -58.47595,58.47595 58.475952,58.475952 0 0 1 -58.47595,-58.47595 58.475952,58.475952 0 0 1 58.47595,-58.475955 58.475952,58.475952 0 0 1 58.47595,58.475955 z"
       inkscape:export-filename=".\borromean-1.svg"
       inkscape:export-xdpi="96"
       inkscape:export-ydpi="96" />
    <path
       id="path234-44-1"
       style="display:inline;fill:none;stroke:#ed333b;stroke-width:5;stroke-linejoin:round"
       d="m 274.89162,330.63506 a 58.475952,58.475952 0 0 1 -58.47595,58.47595 58.475952,58.475952 0 0 1 -58.47595,-58.47595 58.475952,58.475952 0 0 1 58.47595,-58.47596 58.475952,58.475952 0 0 1 58.47595,58.47596 z"
       inkscape:export-filename=".\borromean-2.svg"
       inkscape:export-xdpi="96"
       inkscape:export-ydpi="96" />
    <path
       id="path234-44-8-1"
       style="display:inline;fill:none;stroke:#ed333b;stroke-width:5;stroke-linejoin:round"
       d="m 335.00708,335.0071 a 58.475952,58.475952 0 0 1 -58.47595,58.47595 58.475952,58.475952 0 0 1 -58.47595,-58.47595 58.475952,58.475952 0 0 1 58.47595,-58.47596 58.475952,58.475952 0 0 1 58.47595,58.47596 z"
       inkscape:export-filename=".\unlink-2.svg"
       inkscape:export-xdpi="96"
       inkscape:export-ydpi="96"
       clip-path="url(#clipPath8097)" />
  </g>
  <g
     inkscape:groupmode="layer"
     id="layer4"
     inkscape:label="Link Barcodes"
     style="display:none"
     transform="translate(-64.387054,-94.228142)">
    <path
       style="fill:#000000;fill-opacity:1;stroke:#000000;stroke-width:3.6579;stroke-linecap:round;stroke-linejoin:round;stroke-dasharray:none;stroke-dashoffset:0;stroke-opacity:1"
       d="M 109.01696,169.24347 V 415.89841"
       id="path9089"
       inkscape:export-filename="h1-link-bar.svg"
       inkscape:export-xdpi="96"
       inkscape:export-ydpi="96" />
  </g>
  <g
     inkscape:groupmode="layer"
     id="layer5"
     inkscape:label="H1"
     style="display:none"
     transform="translate(-64.387054,-94.228142)">
    <path
       style="fill:#5e5c64;fill-opacity:1;stroke:#5e5c64;stroke-width:3.77555;stroke-linecap:round;stroke-linejoin:round;stroke-dasharray:none;stroke-dashoffset:0;stroke-opacity:1;marker-start:url(#Dot);marker-end:url(#three_dots)"
       d="M 136.31428,254.85556 H 346.56237"
       id="path9950" />
  </g>
  <g
     inkscape:groupmode="layer"
     id="layer12"
     inkscape:label="sT"
     style="display:inline"
     transform="translate(-64.387054,-94.228142)">
    <path
       style="fill:#000000;stroke:#000000;stroke-width:3;stroke-linecap:round;stroke-linejoin:round;stroke-dasharray:none;stroke-opacity:1"
       d="M 77.559557,114.92056 V 262.94581"
       id="path7177" />
    <path
       style="fill:#000000;stroke:#000000;stroke-width:3;stroke-linecap:round;stroke-linejoin:round;stroke-dasharray:none;stroke-opacity:1"
       d="M 227.00358,116.10287 V 264.12812"
       id="path7177-1" />
    <path
       style="fill:#000000;stroke:#000000;stroke-width:3;stroke-linecap:round;stroke-linejoin:round;stroke-dasharray:none;stroke-opacity:1"
       d="M 78.741868,115.3935 H 226.76711"
       id="path7177-4" />
    <path
       style="fill:#000000;stroke:#000000;stroke-width:3;stroke-linecap:round;stroke-linejoin:round;stroke-dasharray:none;stroke-opacity:1"
       d="M 78.268943,191.06135 H 226.29419"
       id="path7177-4-2" />
    <path
       style="fill:#000000;stroke:#000000;stroke-width:3;stroke-linecap:round;stroke-linejoin:round;stroke-dasharray:none;stroke-opacity:1"
       d="M 225.34835,263.41873 H 77.323093"
       id="path7177-6" />
    <path
       style="fill:#000000;stroke:#000000;stroke-width:3;stroke-linecap:round;stroke-linejoin:round;stroke-dasharray:none;stroke-opacity:1"
       d="M 152.28157,116.10287 V 264.12812"
       id="path7177-0" />
    <path
       style="fill:#f66151;stroke:#000000;stroke-width:1.41877;stroke-linecap:round;stroke-linejoin:round;stroke-dasharray:none;stroke-opacity:1"
       d="m 153.18862,116.38552 c -0.589,9.27151 -0.0836,18.74406 -0.25216,28.0928 0,14.97593 0,29.95186 0,44.92779 1.67823,2.17166 5.54254,0.45146 8.0942,1.00035 21.43923,0 42.87846,0 64.31769,0 2.17165,-1.67824 0.45145,-5.54254 1.00034,-8.09421 0,-21.75451 0,-43.50902 0,-65.26353 -1.67823,-2.17166 -5.54254,-0.45145 -8.09421,-1.00034 -21.43922,0 -42.87845,0 -64.31768,0 l -0.43117,0.19429 z"
       id="path7657" />
    <path
       style="fill:#f66151;stroke:#000000;stroke-width:1.41877;stroke-linecap:round;stroke-linejoin:round;stroke-dasharray:none;stroke-opacity:1"
       d="m 78.46661,116.38552 c -0.589001,9.27151 -0.08361,18.74406 -0.252165,28.0928 0,14.97593 0,29.95186 0,44.92779 1.678235,2.17166 5.542543,0.45146 8.094208,1.00035 21.439227,0 42.878457,0 64.317677,0 2.17166,-1.67824 0.45146,-5.54254 1.00035,-8.09421 0,-21.75451 0,-43.50902 0,-65.26353 -1.67824,-2.17166 -5.54254,-0.45145 -8.09421,-1.00034 -21.43923,0 -42.87845,0 -64.317679,0 l -0.43117,0.19429 z"
       id="path7680" />
    <path
       style="fill:#f66151;stroke:#000000;stroke-width:1.41877;stroke-linecap:round;stroke-linejoin:round;stroke-dasharray:none;stroke-opacity:1"
       d="m 153.18862,192.05338 c -0.589,9.27151 -0.0836,18.74406 -0.25216,28.0928 0.1294,14.00227 -0.2589,28.1158 0.19429,42.04849 2.28382,1.30173 5.66857,0.20976 8.37284,0.56918 21.28158,0 42.56317,0 63.84476,0 2.17165,-1.67824 0.45145,-5.54254 1.00034,-8.09421 0,-20.65102 0,-41.30204 0,-61.95306 -1.67823,-2.17166 -5.54254,-0.45145 -8.09421,-1.00034 -21.43922,0 -42.87845,0 -64.31768,0 l -0.43117,0.19429 z"
       id="path7704" />
    <path
       style="fill:#f66151;stroke:#000000;stroke-width:1.41877;stroke-linecap:round;stroke-linejoin:round;stroke-dasharray:none;stroke-opacity:1"
       d="m 78.46661,192.05338 c -0.589001,9.27151 -0.08361,18.74406 -0.252165,28.0928 0.129406,14.00227 -0.258893,28.1158 0.194293,42.04849 2.283822,1.30173 5.668575,0.20976 8.372839,0.56918 21.281583,0 42.563173,0 63.844753,0 2.17166,-1.67824 0.45146,-5.54254 1.00035,-8.09421 0,-20.65102 0,-41.30204 0,-61.95306 -1.67824,-2.17166 -5.54254,-0.45145 -8.09421,-1.00034 -21.43923,0 -42.87845,0 -64.317679,0 l -0.43117,0.19429 z"
       id="path7727" />
    <text
       xml:space="preserve"
       style="font-style:normal;font-variant:normal;font-weight:normal;font-stretch:normal;font-size:18.6667px;font-family:'Times New Roman';-inkscape-font-specification:'Times New Roman, ';display:inline;fill:#000000;stroke:none;stroke-linecap:round;stroke-linejoin:round"
       x="69.299545"
       y="109.19553"
       id="text2637-4"><tspan
         sodipodi:role="line"
         id="tspan2635-4"
         x="69.299545"
         y="109.19553"
         style="font-size:18.6667px">a</tspan></text>
    <text
       xml:space="preserve"
       style="font-style:normal;font-variant:normal;font-weight:normal;font-stretch:normal;font-size:18.6667px;font-family:'Times New Roman';-inkscape-font-specification:'Times New Roman, ';display:inline;fill:#000000;stroke:none;stroke-linecap:round;stroke-linejoin:round"
       x="146.88216"
       y="107.1891"
       id="text2637-4-1"><tspan
         sodipodi:role="line"
         id="tspan2635-4-7"
         x="146.88216"
         y="107.1891"
         style="font-size:18.6667px">b</tspan></text>
    <text
       xml:space="preserve"
       style="font-style:normal;font-variant:normal;font-weight:normal;font-stretch:normal;font-size:18.6667px;font-family:'Times New Roman';-inkscape-font-specification:'Times New Roman, ';display:inline;fill:#000000;stroke:none;stroke-linecap:round;stroke-linejoin:round"
       x="228.47768"
       y="110.53319"
       id="text2637-4-0"><tspan
         sodipodi:role="line"
         id="tspan2635-4-75"
         x="228.47768"
         y="110.53319"
         style="font-size:18.6667px">a</tspan></text>
    <text
       xml:space="preserve"
       style="font-style:normal;font-variant:normal;font-weight:normal;font-stretch:normal;font-size:18.6667px;font-family:'Times New Roman';-inkscape-font-specification:'Times New Roman, ';display:inline;fill:#000000;stroke:none;stroke-linecap:round;stroke-linejoin:round"
       x="234.49701"
       y="197.47923"
       id="text2637-4-4"><tspan
         sodipodi:role="line"
         id="tspan2635-4-5"
         x="234.49701"
         y="197.47923"
         style="font-size:18.6667px">c</tspan></text>
    <text
       xml:space="preserve"
       style="font-style:normal;font-variant:normal;font-weight:normal;font-stretch:normal;font-size:18.6667px;font-family:'Times New Roman';-inkscape-font-specification:'Times New Roman, ';display:inline;fill:#000000;stroke:none;stroke-linecap:round;stroke-linejoin:round"
       x="230.48413"
       y="274.39304"
       id="text2637-4-9"><tspan
         sodipodi:role="line"
         id="tspan2635-4-8"
         x="230.48413"
         y="274.39304"
         style="font-size:18.6667px">a</tspan></text>
    <text
       xml:space="preserve"
       style="font-style:normal;font-variant:normal;font-weight:normal;font-stretch:normal;font-size:18.6667px;font-family:'Times New Roman';-inkscape-font-specification:'Times New Roman, ';display:inline;fill:#000000;stroke:none;stroke-linecap:round;stroke-linejoin:round"
       x="148.88861"
       y="284.42526"
       id="text2637-4-98"><tspan
         sodipodi:role="line"
         id="tspan2635-4-88"
         x="148.88861"
         y="284.42526"
         style="font-size:18.6667px">b</tspan></text>
    <text
       xml:space="preserve"
       style="font-style:normal;font-variant:normal;font-weight:normal;font-stretch:normal;font-size:18.6667px;font-family:'Times New Roman';-inkscape-font-specification:'Times New Roman, ';display:inline;fill:#000000;stroke:none;stroke-linecap:round;stroke-linejoin:round"
       x="63.721691"
       y="276.65564"
       id="text2637-4-5"><tspan
         sodipodi:role="line"
         id="tspan2635-4-3"
         x="63.721691"
         y="276.65564"
         style="font-size:18.6667px">a</tspan></text>
    <text
       xml:space="preserve"
       style="font-style:normal;font-variant:normal;font-weight:normal;font-stretch:normal;font-size:18.6667px;font-family:'Times New Roman';-inkscape-font-specification:'Times New Roman, ';display:inline;fill:#000000;stroke:none;stroke-linecap:round;stroke-linejoin:round"
       x="137.13412"
       y="186.38202"
       id="text2637-4-7"><tspan
         sodipodi:role="line"
         id="tspan2635-4-6"
         x="137.13412"
         y="186.38202"
         style="font-size:18.6667px">d</tspan></text>
    <text
       xml:space="preserve"
       style="font-style:normal;font-variant:normal;font-weight:normal;font-stretch:normal;font-size:18.6667px;font-family:'Times New Roman';-inkscape-font-specification:'Times New Roman, ';display:inline;fill:#000000;stroke:none;stroke-linecap:round;stroke-linejoin:round"
       x="65.013191"
       y="197.49573"
       id="text2637-4-16"><tspan
         sodipodi:role="line"
         id="tspan2635-4-60"
         x="65.013191"
         y="197.49573"
         style="font-size:18.6667px">c</tspan></text>
  </g>
  <g
     inkscape:groupmode="layer"
     id="layer10"
     inkscape:label="Filtration"
     style="display:none"
     transform="translate(-64.387054,-94.228142)">
    <path
       style="display:inline;fill:#000000;stroke:none;stroke-linecap:round;stroke-linejoin:round"
       id="path3446"
       d="m 96.697594,97.327012 c -2.865734,0.623707 -5.590501,1.663705 -8.190178,3.003388 -4.786216,3.19423 -8.772399,7.52181 -12.033066,12.24218 -0.755628,1.0939 -1.435719,2.23809 -2.153579,3.35714 -3.376581,5.59874 -5.390618,11.88082 -6.024216,18.38484 -0.121194,1.24408 -0.127785,2.49667 -0.191677,3.74501 -0.21308,6.93136 2.134968,12.55282 5.597046,18.38498 2.143116,3.16029 4.57708,6.10964 7.57564,8.49606 2.108862,1.67834 2.89704,2.07116 5.206572,3.50338 4.146251,2.22834 8.581198,4.0262 13.191366,5.03731 3.333078,0.73101 4.508988,0.75521 7.901628,1.10567 9.36948,0.15947 17.86501,-2.42194 26.37146,-6.07188 3.84478,-1.81786 7.5665,-3.93004 10.82058,-6.68852 1.77358,-1.50347 2.25707,-2.09289 3.83316,-3.74262 3.36363,-3.72477 5.67695,-8.17285 7.57288,-12.77909 1.69441,-4.2925 2.34751,-8.83136 2.49993,-13.4134 0.14398,-4.37603 -1.08715,-8.54223 -2.95216,-12.44976 -1.73593,-3.3757 -4.24963,-6.23422 -6.82749,-8.98408 -2.27732,-2.49496 -4.91916,-4.56798 -7.64179,-6.5458 -3.58091,-2.57284 -7.41329,-4.756865 -11.28077,-6.861988 -3.3327,-1.831282 -6.8495,-3.256792 -10.45445,-4.445627 -3.35306,-0.9266 -6.88638,-1.450668 -10.37187,-1.187179 -0.88229,0.0667 -1.7562,0.217416 -2.6343,0.326124 -5.21289,0.850128 -9.973042,3.118283 -14.751725,5.247722 -2.44108,1.087909 -0.902544,4.540118 1.538535,3.452208 v 0 c 4.440952,-1.979435 8.85461,-4.119184 13.69069,-4.950687 3.92311,-0.515921 7.52672,-0.436509 11.34682,0.701807 3.39042,1.11406 6.69622,2.453993 9.82969,4.17542 3.72447,2.02636 7.41721,4.1253 10.86689,6.60067 2.53103,1.83644 4.99221,3.75169 7.10613,6.07354 2.31731,2.46708 4.59669,5.01946 6.17861,8.03818 1.62946,3.34531 2.69432,6.93182 2.57954,10.69022 -0.12251,4.13094 -0.70517,8.22484 -2.21923,12.09871 -1.70546,4.17652 -3.78614,8.21689 -6.81302,11.60664 -1.42149,1.49822 -1.84312,2.01758 -3.44181,3.38548 -2.98901,2.55751 -6.4294,4.49359 -9.96823,6.18005 -7.76934,3.35043 -15.94085,5.88505 -24.49429,5.78387 -3.11323,-0.31365 -4.26497,-0.34043 -7.31567,-0.99869 -4.251403,-0.91734 -8.343045,-2.56811 -12.174623,-4.59969 -2.114686,-1.30106 -2.793642,-1.63269 -4.722226,-3.14803 -2.69558,-2.11801 -4.865441,-4.75887 -6.800381,-7.57193 -2.994922,-4.99598 -5.303125,-10.30743 -5.068159,-16.26358 0.05324,-1.1355 0.0536,-2.27472 0.159731,-3.4065 0.559364,-5.96483 2.375215,-11.73341 5.464668,-16.87161 3.453452,-5.41058 7.367847,-10.64778 12.755285,-14.28768 2.326883,-1.24067 4.811271,-2.11806 7.38718,-2.69384 2.586885,-0.67113 1.637769,-4.329548 -0.949121,-3.658418 z" />
  </g>
</svg>
