<?xml version="1.0" encoding="UTF-8" standalone="no"?>
<!-- Created with Inkscape (http://www.inkscape.org/) -->

<svg
   width="255.65909"
   height="239.6767"
   viewBox="0 0 255.65909 239.6767"
   version="1.1"
   id="SVGRoot"
   sodipodi:docname="unlink filtration.svg"
   inkscape:version="1.2.2 (732a01da63, 2022-12-09)"
   xmlns:inkscape="http://www.inkscape.org/namespaces/inkscape"
   xmlns:sodipodi="http://sodipodi.sourceforge.net/DTD/sodipodi-0.dtd"
   xmlns="http://www.w3.org/2000/svg"
   xmlns:svg="http://www.w3.org/2000/svg">
  <sodipodi:namedview
     id="namedview170"
     pagecolor="#ffffff"
     bordercolor="#111111"
     borderopacity="1"
     inkscape:showpageshadow="0"
     inkscape:pageopacity="0"
     inkscape:pagecheckerboard="1"
     inkscape:deskcolor="#d1d1d1"
     inkscape:document-units="px"
     showgrid="false"
     inkscape:zoom="0.914906"
     inkscape:cx="373.80889"
     inkscape:cy="283.63569"
     inkscape:window-width="1354"
     inkscape:window-height="838"
     inkscape:window-x="1779"
     inkscape:window-y="245"
     inkscape:window-maximized="0"
     inkscape:current-layer="layer1" />
  <defs
     id="defs165" />
  <g
     inkscape:groupmode="layer"
     id="layer3"
     inkscape:label="Capa 3"
     transform="translate(-466.88864,-141.01157)">
    <path
       id="path234-3-6"
       style="fill:none;stroke:#62a0ea;stroke-width:5;stroke-linejoin:round"
       d="m 586.34056,318.16656 a 58.475952,58.475952 0 0 1 -58.47595,58.47595 58.475952,58.475952 0 0 1 -58.47596,-58.47595 58.475952,58.475952 0 0 1 58.47596,-58.47595 58.475952,58.475952 0 0 1 58.47595,58.47595 z"
       inkscape:export-filename="path234-3-6.png"
       inkscape:export-xdpi="96"
       inkscape:export-ydpi="96" />
    <path
       id="path234-4-7"
       style="fill:none;stroke:#62a0ea;stroke-width:5;stroke-linejoin:round"
       d="m 720.04771,319.7123 a 58.475952,58.475952 0 0 1 -58.47595,58.47595 58.475952,58.475952 0 0 1 -58.47596,-58.47595 58.475952,58.475952 0 0 1 58.47596,-58.47595 58.475952,58.475952 0 0 1 58.47595,58.47595 z" />
    <path
       id="path234-9-8"
       style="fill:none;stroke:#62a0ea;stroke-width:5;stroke-linejoin:round"
       d="M 653.14895,201.98752 A 58.475952,58.475952 0 0 1 594.673,260.46347 58.475952,58.475952 0 0 1 536.19704,201.98752 58.475952,58.475952 0 0 1 594.673,143.51157 58.475952,58.475952 0 0 1 653.14895,201.98752 Z" />
  </g>
</svg>
